<svg width="121" height="121" viewBox="0 0 121 121" fill="none" xmlns="http://www.w3.org/2000/svg">
<path d="M93.9121 38.0361H93.6871C92.7329 29.814 88.7904 22.2292 82.6093 16.7239C76.4282 11.2186 68.4395 8.17676 60.1621 8.17676C51.8848 8.17676 43.896 11.2186 37.7149 16.7239C31.5338 22.2292 27.5913 29.814 26.6371 38.0361H26.4121C21.4393 38.0361 16.6702 40.0116 13.1539 43.5279C9.63755 47.0442 7.66211 51.8133 7.66211 56.7861C7.66211 61.759 9.63755 66.5281 13.1539 70.0444C16.6702 73.5607 21.4393 75.5361 26.4121 75.5361H33.9121V41.7861C33.9121 34.8242 36.6777 28.1474 41.6006 23.2246C46.5234 18.3018 53.2002 15.5361 60.1621 15.5361C67.124 15.5361 73.8008 18.3018 78.7237 23.2246C83.6465 28.1474 86.4121 34.8242 86.4121 41.7861V79.2861C86.4096 82.722 85.2276 86.0528 83.0639 88.7217C80.9001 91.3905 77.8857 93.2357 74.5246 93.9487C73.5236 90.4378 71.2765 87.4125 68.2045 85.4398C65.1325 83.4672 61.4466 82.6826 57.8375 83.2332C54.2285 83.7837 50.9441 85.6315 48.6 88.4304C46.2559 91.2292 45.013 94.7868 45.1042 98.4365C45.1954 102.086 46.6146 105.577 49.0956 108.255C51.5767 110.934 54.9493 112.615 58.5813 112.985C62.2134 113.354 65.8555 112.386 68.8251 110.263C71.7946 108.139 73.8877 105.005 74.7121 101.449C80.0333 100.66 84.8958 97.9904 88.4182 93.9246C91.9405 89.8588 93.8896 84.6655 93.9121 79.2861V75.5361C98.8849 75.5361 103.654 73.5607 107.17 70.0444C110.687 66.5281 112.662 61.759 112.662 56.7861C112.662 51.8133 110.687 47.0442 107.17 43.5279C103.654 40.0116 98.8849 38.0361 93.9121 38.0361ZM15.1621 56.7861C15.1621 53.8025 16.3474 50.941 18.4572 48.8312C20.5669 46.7214 23.4284 45.5361 26.4121 45.5361V68.0361C23.4284 68.0361 20.5669 66.8509 18.4572 64.7411C16.3474 62.6313 15.1621 59.7698 15.1621 56.7861ZM60.1621 105.536C58.6787 105.536 57.2287 105.096 55.9953 104.272C54.762 103.448 53.8007 102.277 53.233 100.906C52.6654 99.5358 52.5168 98.0278 52.8062 96.573C53.0956 95.1181 53.8099 93.7817 54.8588 92.7328C55.9077 91.684 57.2441 90.9697 58.6989 90.6803C60.1538 90.3909 61.6618 90.5394 63.0322 91.1071C64.4027 91.6747 65.574 92.636 66.3981 93.8694C67.2222 95.1027 67.6621 96.5528 67.6621 98.0361C67.6621 100.025 66.8719 101.933 65.4654 103.339C64.0589 104.746 62.1512 105.536 60.1621 105.536ZM93.9121 68.0361V45.5361C96.8958 45.5361 99.7573 46.7214 101.867 48.8312C103.977 50.941 105.162 53.8025 105.162 56.7861C105.162 59.7698 103.977 62.6313 101.867 64.7411C99.7573 66.8509 96.8958 68.0361 93.9121 68.0361Z" fill="#323232"/>
<path fill-rule="evenodd" clip-rule="evenodd" d="M60.1621 113.062C68.4464 113.062 75.1621 106.34 75.1621 98.0489C75.1621 89.7576 68.4464 83.0361 60.1621 83.0361C51.8778 83.0361 45.1621 89.7576 45.1621 98.0489C45.1621 106.34 51.8778 113.062 60.1621 113.062ZM60.1621 105.549C64.3733 105.549 67.7871 102.191 67.7871 98.0488C67.7871 93.9067 64.3733 90.5488 60.1621 90.5488C55.9509 90.5488 52.5371 93.9067 52.5371 98.0488C52.5371 102.191 55.9509 105.549 60.1621 105.549Z" fill="url(#paint0_linear)"/>
<defs>
<linearGradient id="paint0_linear" x1="75.1621" y1="83.0361" x2="45.1621" y2="113.062" gradientUnits="userSpaceOnUse">
<stop stop-color="#B10000"/>
<stop offset="1" stop-color="#F16228"/>
</linearGradient>
</defs>
</svg>
