<svg width="24" height="24" viewBox="0 0 24 24" fill="none" xmlns="http://www.w3.org/2000/svg">
<path d="M16.8045 8.27551C17.401 8.27551 17.8845 7.79198 17.8845 7.19551C17.8845 6.59904 17.401 6.11551 16.8045 6.11551C16.2081 6.11551 15.7245 6.59904 15.7245 7.19551C15.7245 7.79198 16.2081 8.27551 16.8045 8.27551Z" fill="#B10000"/>
<path d="M12 7.37851C11.0859 7.37851 10.1924 7.64956 9.43241 8.15737C8.6724 8.66519 8.08005 9.38697 7.73026 10.2314C7.38047 11.0759 7.28895 12.0051 7.46727 12.9016C7.6456 13.7981 8.08575 14.6216 8.73208 15.2679C9.37841 15.9142 10.2019 16.3544 11.0984 16.5327C11.9948 16.711 12.9241 16.6195 13.7685 16.2697C14.613 15.9199 15.3348 15.3276 15.8426 14.5676C16.3504 13.8076 16.6215 12.9141 16.6215 12C16.6215 10.7743 16.1346 9.59881 15.2679 8.73212C14.4012 7.86542 13.2257 7.37851 12 7.37851ZM12 15C11.4066 15 10.8266 14.8241 10.3333 14.4944C9.83992 14.1648 9.4554 13.6962 9.22833 13.1481C9.00127 12.5999 8.94186 11.9967 9.05762 11.4147C9.17337 10.8328 9.4591 10.2982 9.87865 9.87869C10.2982 9.45913 10.8328 9.17341 11.4147 9.05765C11.9966 8.9419 12.5998 9.00131 13.148 9.22837C13.6962 9.45543 14.1647 9.83995 14.4944 10.3333C14.824 10.8266 15 11.4067 15 12C15 12.7957 14.6839 13.5587 14.1213 14.1213C13.5587 14.6839 12.7956 15 12 15Z" fill="#B10000"/>
<path d="M12 4.6215C14.403 4.6215 14.688 4.6305 15.6368 4.674C16.2074 4.68077 16.7726 4.78555 17.3077 4.98375C17.696 5.13352 18.0486 5.36291 18.3428 5.65716C18.6371 5.95141 18.8665 6.304 19.0163 6.69225C19.2145 7.2274 19.3192 7.79262 19.326 8.36325C19.3695 9.312 19.3785 9.597 19.3785 12.0007C19.3785 14.4045 19.3695 14.688 19.326 15.6368C19.3192 16.2074 19.2145 16.7726 19.0163 17.3077C18.8665 17.696 18.6371 18.0486 18.3428 18.3428C18.0486 18.6371 17.696 18.8665 17.3077 19.0163C16.7726 19.2145 16.2074 19.3192 15.6368 19.326C14.688 19.3695 14.403 19.3785 12 19.3785C9.597 19.3785 9.312 19.3695 8.36325 19.326C7.79262 19.3192 7.2274 19.2145 6.69225 19.0163C6.304 18.8665 5.95141 18.6371 5.65716 18.3428C5.36291 18.0486 5.13352 17.696 4.98375 17.3077C4.78555 16.7726 4.68077 16.2074 4.674 15.6368C4.6305 14.688 4.6215 14.403 4.6215 12C4.6215 9.597 4.6305 9.312 4.674 8.36325C4.68077 7.79262 4.78555 7.2274 4.98375 6.69225C5.13352 6.304 5.36291 5.95141 5.65716 5.65716C5.95141 5.36291 6.304 5.13352 6.69225 4.98375C7.2274 4.78555 7.79262 4.68077 8.36325 4.674C9.312 4.6305 9.597 4.6215 12 4.6215ZM12 3C9.55575 3 9.249 3.0105 8.289 3.054C7.54258 3.06907 6.80412 3.21058 6.105 3.4725C5.50704 3.70372 4.96399 4.05733 4.51066 4.51066C4.05733 4.96399 3.70372 5.50704 3.4725 6.105C3.21049 6.80435 3.06899 7.54308 3.054 8.28975C3.0105 9.24975 3 9.555 3 12C3 14.445 3.0105 14.751 3.054 15.711C3.06907 16.4574 3.21058 17.1959 3.4725 17.895C3.70372 18.493 4.05733 19.036 4.51066 19.4893C4.96399 19.9427 5.50704 20.2963 6.105 20.5275C6.80435 20.7895 7.54308 20.931 8.28975 20.946C9.24975 20.9895 9.55575 21 12 21C14.4443 21 14.751 20.9895 15.711 20.946C16.4577 20.931 17.1964 20.7895 17.8958 20.5275C18.4937 20.2963 19.0368 19.9427 19.4901 19.4893C19.9434 19.036 20.297 18.493 20.5282 17.895C20.79 17.1956 20.9313 16.4569 20.946 15.7103C20.9895 14.7503 21 14.445 21 12C21 9.555 20.9895 9.249 20.946 8.289C20.9309 7.54258 20.7894 6.80412 20.5275 6.105C20.2963 5.50704 19.9427 4.96399 19.4893 4.51066C19.036 4.05733 18.493 3.70372 17.895 3.4725C17.1956 3.21075 16.4569 3.0695 15.7103 3.05475C14.7503 3.00975 14.445 3 12 3Z" fill="#B10000"/>
</svg>
