<svg width="42" height="42" viewBox="0 0 42 42" fill="none" xmlns="http://www.w3.org/2000/svg">
<path d="M39.1256 21L29.9381 8.4525C29.8202 8.27802 29.6621 8.13446 29.4771 8.03395C29.292 7.93344 29.0855 7.87892 28.875 7.875H3.9375C3.5894 7.875 3.25556 8.01328 3.00942 8.25942C2.76328 8.50556 2.625 8.8394 2.625 9.1875V31.5C2.625 31.8481 2.76328 32.1819 3.00942 32.4281C3.25556 32.6742 3.5894 32.8125 3.9375 32.8125H6.74625C7.0485 33.9247 7.70831 34.9065 8.62391 35.6065C9.5395 36.3064 10.66 36.6857 11.8125 36.6857C12.965 36.6857 14.0855 36.3064 15.0011 35.6065C15.9167 34.9065 16.5765 33.9247 16.8787 32.8125H25.1213C25.4235 33.9247 26.0833 34.9065 26.9989 35.6065C27.9145 36.3064 29.035 36.6857 30.1875 36.6857C31.34 36.6857 32.4605 36.3064 33.3761 35.6065C34.2917 34.9065 34.9515 33.9247 35.2537 32.8125H38.0625C38.4106 32.8125 38.7444 32.6742 38.9906 32.4281C39.2367 32.1819 39.375 31.8481 39.375 31.5V21.735C39.3679 21.4705 39.2809 21.2143 39.1256 21ZM26.25 10.5H28.2056L34.9388 19.6875H26.25V10.5ZM5.25 10.5H23.625V19.6875H5.25V10.5ZM11.8125 34.125C11.2933 34.125 10.7858 33.971 10.3541 33.6826C9.92245 33.3942 9.586 32.9842 9.38732 32.5045C9.18864 32.0249 9.13665 31.4971 9.23794 30.9879C9.33922 30.4787 9.58923 30.011 9.95634 29.6438C10.3235 29.2767 10.7912 29.0267 11.3004 28.9254C11.8096 28.8241 12.3374 28.8761 12.817 29.0748C13.2967 29.2735 13.7067 29.6099 13.9951 30.0416C14.2835 30.4733 14.4375 30.9808 14.4375 31.5C14.4375 32.1962 14.1609 32.8639 13.6687 33.3561C13.1764 33.8484 12.5087 34.125 11.8125 34.125ZM30.1875 34.125C29.6683 34.125 29.1608 33.971 28.7291 33.6826C28.2974 33.3942 27.961 32.9842 27.7623 32.5045C27.5636 32.0249 27.5117 31.4971 27.6129 30.9879C27.7142 30.4787 27.9642 30.011 28.3313 29.6438C28.6985 29.2767 29.1662 29.0267 29.6754 28.9254C30.1846 28.8241 30.7124 28.8761 31.192 29.0748C31.6717 29.2735 32.0817 29.6099 32.3701 30.0416C32.6585 30.4733 32.8125 30.9808 32.8125 31.5C32.8125 32.1962 32.5359 32.8639 32.0437 33.3561C31.5514 33.8484 30.8837 34.125 30.1875 34.125ZM36.75 30.1875H35.2537C34.9515 29.0753 34.2917 28.0935 33.3761 27.3935C32.4605 26.6936 31.34 26.3143 30.1875 26.3143C29.035 26.3143 27.9145 26.6936 26.9989 27.3935C26.0833 28.0935 25.4235 29.0753 25.1213 30.1875H16.8787C16.5765 29.0753 15.9167 28.0935 15.0011 27.3935C14.0855 26.6936 12.965 26.3143 11.8125 26.3143C10.66 26.3143 9.5395 26.6936 8.62391 27.3935C7.70831 28.0935 7.0485 29.0753 6.74625 30.1875H5.25V22.3125H36.75V30.1875Z" fill="url(#paint0_linear)"/>
<defs>
<linearGradient id="paint0_linear" x1="39.375" y1="7.875" x2="2.625" y2="36.6857" gradientUnits="userSpaceOnUse">
<stop stop-color="#B10000"/>
<stop offset="1" stop-color="#F16228"/>
</linearGradient>
</defs>
</svg>
