<?xml version="1.0" encoding="utf-8"?><svg viewBox="0 0 42 42" xmlns="http://www.w3.org/2000/svg" xmlns:xlink="http://www.w3.org/1999/xlink"><style>:root>svg{display:none}:root>svg:target{display:block}</style><svg fill="none" viewBox="0 0 42 42" id="close" xmlns="http://www.w3.org/2000/svg"><path d="M36.75 21c0-8.695-7.055-15.75-15.75-15.75S5.25 12.305 5.25 21 12.305 36.75 21 36.75 36.75 29.695 36.75 21z" stroke="#323232" stroke-width="2" stroke-miterlimit="10"/><path d="M26.25 26.25l-10.5-10.5M15.75 26.25l10.5-10.5" stroke="#323232" stroke-width="2" stroke-linecap="round" stroke-linejoin="round"/></svg><svg fill="none" viewBox="0 0 25 25" id="fb" xmlns="http://www.w3.org/2000/svg"><path d="M10.999 8.216v1.729H9.734v2.112h1.265v6.28h2.6v-6.28h1.746s.164-1.013.243-2.121H13.61V8.492c0-.217.284-.507.565-.507h1.416v-2.2h-1.927c-2.73 0-2.665 2.115-2.665 2.431z" fill="#fff"/><circle cx="12.662" cy="12.061" r="9.679" stroke="#fff" stroke-width="1.5"/></svg><svg fill="none" viewBox="0 0 24 24" id="fb-contact" xmlns="http://www.w3.org/2000/svg"><path d="M10.337 8.155v1.729H9.07v2.112h1.266v6.28h2.6v-6.28h1.745s.165-1.013.244-2.121h-1.978V8.43c0-.217.283-.507.565-.507h1.415v-2.2h-1.926c-2.73 0-2.665 2.115-2.665 2.431z" fill="#B10000"/><circle cx="12" cy="12" r="9.679" stroke="#B10000" stroke-width="1.5"/></svg><svg fill="none" viewBox="0 0 25 25" id="inst" xmlns="http://www.w3.org/2000/svg"><g fill="#fff"><path d="M17.467 8.337a1.08 1.08 0 100-2.16 1.08 1.08 0 000 2.16zM12.662 7.44a4.621 4.621 0 100 9.242 4.621 4.621 0 000-9.243zm0 7.621a3 3 0 110-6.001 3 3 0 010 6.001z"/><path d="M12.662 4.683c2.403 0 2.688.009 3.637.052.57.007 1.136.112 1.67.31a2.98 2.98 0 011.71 1.708c.198.535.302 1.1.31 1.671.043.949.052 1.234.052 3.638s-.01 2.687-.053 3.636a4.982 4.982 0 01-.31 1.67 2.982 2.982 0 01-1.708 1.71 4.98 4.98 0 01-1.671.309c-.949.043-1.234.052-3.637.052s-2.688-.009-3.637-.052a4.98 4.98 0 01-1.67-.31 2.982 2.982 0 01-1.71-1.708 4.982 4.982 0 01-.309-1.671c-.043-.949-.052-1.234-.052-3.637s.009-2.688.052-3.637c.007-.57.112-1.136.31-1.67a2.981 2.981 0 011.708-1.71 4.981 4.981 0 011.671-.309c.95-.043 1.234-.052 3.637-.052zm0-1.622c-2.444 0-2.75.01-3.71.054a6.605 6.605 0 00-2.185.419 4.602 4.602 0 00-2.632 2.632 6.605 6.605 0 00-.419 2.185c-.043.96-.054 1.265-.054 3.71 0 2.445.01 2.751.054 3.711.015.746.157 1.485.419 2.184a4.602 4.602 0 002.632 2.633c.7.262 1.438.403 2.185.418.96.043 1.266.054 3.71.054s2.751-.01 3.711-.054a6.606 6.606 0 002.185-.419 4.602 4.602 0 002.632-2.632c.262-.7.403-1.438.418-2.185.044-.96.054-1.265.054-3.71 0-2.445-.01-2.751-.054-3.711a6.607 6.607 0 00-.418-2.184 4.6 4.6 0 00-2.633-2.632 6.605 6.605 0 00-2.185-.418c-.96-.045-1.265-.055-3.71-.055z"/></g></svg><svg fill="none" viewBox="0 0 24 24" id="inst-contact" xmlns="http://www.w3.org/2000/svg"><path d="M16.805 8.276a1.08 1.08 0 100-2.16 1.08 1.08 0 000 2.16zM12 7.379a4.621 4.621 0 100 9.242 4.621 4.621 0 000-9.242zM12 15a3 3 0 110-5.999A3 3 0 0112 15z" fill="#B10000"/><path d="M12 4.622c2.403 0 2.688.008 3.637.052a4.98 4.98 0 011.67.31 2.98 2.98 0 011.71 1.708c.198.535.302 1.1.309 1.671.043.949.052 1.234.052 3.638s-.009 2.687-.052 3.636a4.981 4.981 0 01-.31 1.67 2.98 2.98 0 01-1.708 1.71c-.535.198-1.1.302-1.671.309-.949.043-1.234.052-3.637.052s-2.688-.009-3.637-.052a4.982 4.982 0 01-1.67-.31 2.981 2.981 0 01-1.71-1.708 4.98 4.98 0 01-.309-1.671c-.044-.949-.053-1.234-.053-3.637s.01-2.688.053-3.637c.007-.57.112-1.136.31-1.67a2.981 2.981 0 011.708-1.71 4.981 4.981 0 011.671-.309c.949-.044 1.234-.053 3.637-.053zM12 3c-2.444 0-2.751.01-3.711.054a6.605 6.605 0 00-2.184.419 4.602 4.602 0 00-2.633 2.632 6.605 6.605 0 00-.418 2.185C3.011 9.25 3 9.555 3 12c0 2.445.01 2.751.054 3.711.015.746.157 1.485.419 2.184a4.601 4.601 0 002.632 2.633c.7.262 1.438.403 2.185.418.96.043 1.266.054 3.71.054s2.751-.01 3.711-.054a6.606 6.606 0 002.185-.419 4.6 4.6 0 002.632-2.632c.262-.7.403-1.438.418-2.185.043-.96.054-1.265.054-3.71 0-2.445-.01-2.751-.054-3.711a6.607 6.607 0 00-.419-2.184 4.6 4.6 0 00-2.632-2.633 6.605 6.605 0 00-2.185-.417C14.75 3.01 14.445 3 12 3z" fill="#B10000"/></svg><svg fill="none" viewBox="0 0 25 25" id="youtube" xmlns="http://www.w3.org/2000/svg"><path d="M23.162 11.995c0-.051 0-.11-.002-.178l-.012-.63a35.202 35.202 0 00-.103-1.92c-.07-.846-.174-1.551-.314-2.08a3.27 3.27 0 00-2.304-2.31c-.663-.178-1.962-.288-3.79-.356-.87-.033-1.8-.054-2.73-.065-.326-.005-.629-.007-.9-.01h-.69c-.271.003-.574.005-.9.01-.93.011-1.86.032-2.73.065-1.828.07-3.129.18-3.79.357a3.266 3.266 0 00-2.304 2.308c-.143.53-.243 1.235-.314 2.081a35.282 35.282 0 00-.103 1.92c-.007.227-.01.44-.012.63l-.002.178v.132c0 .051 0 .11.002.178l.012.63c.019.654.052 1.306.103 1.92.07.846.174 1.551.314 2.081a3.266 3.266 0 002.304 2.309c.661.178 1.962.288 3.79.356.87.033 1.8.054 2.73.066l.9.009h.69c.271-.002.574-.005.9-.01.93-.011 1.86-.032 2.73-.065 1.828-.07 3.129-.18 3.79-.356a3.262 3.262 0 002.304-2.309c.143-.53.244-1.235.314-2.081.051-.614.084-1.266.103-1.92.007-.227.01-.44.012-.63l.002-.178v-.132zm-1.687.122c0 .05 0 .103-.003.167-.002.183-.007.384-.012.602-.016.624-.049 1.247-.098 1.826-.063.755-.152 1.373-.262 1.788-.146.542-.572.97-1.111 1.113-.492.132-1.732.237-3.418.3a106.449 106.449 0 01-3.574.073h-.67l-.886-.007c-.916-.012-1.833-.033-2.688-.066-1.685-.065-2.928-.168-3.417-.3A1.581 1.581 0 014.225 16.5c-.11-.415-.2-1.033-.263-1.788-.05-.579-.08-1.202-.098-1.826-.007-.218-.01-.422-.012-.602l-.002-.167v-.112c0-.05 0-.103.002-.167.002-.182.007-.384.012-.602.016-.623.049-1.247.098-1.826.063-.754.152-1.373.263-1.788.145-.541.571-.97 1.11-1.113.493-.131 1.733-.237 3.418-.3a106.494 106.494 0 013.574-.073h.67l.886.007c.917.012 1.833.033 2.689.066 1.685.065 2.927.169 3.417.3.539.145.965.572 1.11 1.113.11.415.2 1.034.263 1.788.05.58.08 1.203.099 1.826.007.218.009.422.011.602 0 .064.003.12.003.167v.112zm-10.899 3.085l5.438-3.164-5.438-3.117v6.28z" fill="#fff"/></svg><svg fill="none" viewBox="0 0 24 24" id="youtube-contact" xmlns="http://www.w3.org/2000/svg"><path d="M22.5 11.934c0-.051 0-.11-.002-.178l-.012-.63a35.201 35.201 0 00-.103-1.92c-.07-.846-.174-1.551-.314-2.081a3.269 3.269 0 00-2.304-2.309c-.663-.178-1.962-.288-3.79-.356-.87-.033-1.8-.054-2.73-.065-.326-.005-.629-.007-.9-.01h-.69c-.271.003-.574.005-.9.01-.93.011-1.86.032-2.73.065-1.828.07-3.129.18-3.79.356a3.266 3.266 0 00-2.304 2.309c-.143.53-.244 1.235-.314 2.081a35.281 35.281 0 00-.103 1.92c-.007.227-.01.44-.012.63l-.002.178v.132c0 .051 0 .11.002.178l.012.63c.019.654.052 1.306.103 1.92.07.846.174 1.551.314 2.081a3.266 3.266 0 002.304 2.309c.661.178 1.962.288 3.79.356.87.033 1.8.054 2.73.066l.9.009h.69c.271-.002.574-.005.9-.01.93-.011 1.86-.032 2.73-.065 1.828-.07 3.129-.18 3.79-.356a3.262 3.262 0 002.304-2.309c.143-.53.244-1.235.314-2.081.051-.614.084-1.266.103-1.92.007-.227.01-.44.012-.63l.002-.178v-.132zm-1.688.122c0 .05 0 .103-.002.167-.002.182-.007.384-.012.602-.016.623-.049 1.247-.098 1.826-.063.755-.152 1.373-.262 1.788-.146.541-.572.97-1.111 1.113-.493.132-1.733.237-3.418.3a106.46 106.46 0 01-3.574.073h-.67l-.886-.007a106.72 106.72 0 01-2.688-.066c-1.686-.065-2.928-.168-3.418-.3a1.581 1.581 0 01-1.11-1.113c-.11-.415-.2-1.034-.263-1.788-.05-.58-.08-1.203-.098-1.826-.007-.218-.01-.422-.012-.602l-.002-.167v-.112c0-.05 0-.103.002-.167.002-.182.007-.384.012-.602.016-.623.049-1.247.098-1.826.063-.754.152-1.373.263-1.788.145-.541.571-.97 1.11-1.113.493-.132 1.732-.237 3.418-.3a106.493 106.493 0 013.574-.073h.67l.886.007c.916.012 1.833.033 2.688.066 1.685.065 2.928.168 3.418.3.539.145.965.572 1.11 1.113.11.415.2 1.034.263 1.788.05.58.08 1.203.098 1.826.008.218.01.422.012.602 0 .064.003.12.003.167v.112zM9.915 15.141l5.438-3.164-5.438-3.118v6.282z" fill="#B10000"/></svg></svg>