<svg width="25" height="25" viewBox="0 0 25 25" fill="none" xmlns="http://www.w3.org/2000/svg">
<path d="M15.6621 12.061H17.6621C17.6621 9.30103 15.4221 7.06104 12.6621 7.06104V9.06104C14.3221 9.06104 15.6621 10.401 15.6621 12.061ZM19.6621 12.061H21.6621C21.6621 9.67409 20.7139 7.3849 19.0261 5.69707C17.3382 4.00925 15.0491 3.06104 12.6621 3.06104V5.06104C16.5321 5.06104 19.6621 8.19104 19.6621 12.061ZM20.6621 15.561C19.4121 15.561 18.2121 15.361 17.0921 14.991C16.9921 14.961 16.8821 14.941 16.7821 14.941C16.5221 14.941 16.2721 15.041 16.0721 15.231L13.8721 17.431C11.0333 15.9873 8.72589 13.6798 7.28211 10.841L9.48211 8.63103C9.61456 8.50538 9.70843 8.34455 9.75271 8.16743C9.79699 7.99031 9.78984 7.80424 9.73211 7.63104C9.35276 6.47909 9.16032 5.27383 9.16211 4.06104C9.16211 3.51104 8.71211 3.06104 8.16211 3.06104H4.66211C4.11211 3.06104 3.66211 3.51104 3.66211 4.06104C3.66211 13.451 11.2721 21.061 20.6621 21.061C21.2121 21.061 21.6621 20.611 21.6621 20.061V16.561C21.6621 16.011 21.2121 15.561 20.6621 15.561ZM5.69211 5.06104H7.19211C7.26211 5.94104 7.41211 6.81104 7.64211 7.64104L6.44211 8.85104C6.04211 7.64104 5.78211 6.38104 5.69211 5.06104ZM19.6621 19.031C18.3421 18.941 17.0621 18.681 15.8621 18.271L17.0621 17.071C17.9121 17.311 18.7821 17.461 19.6621 17.521V19.031Z" fill="white"/>
</svg>
