<svg width="120" height="121" viewBox="0 0 120 121" fill="none" xmlns="http://www.w3.org/2000/svg">
<path d="M54.6215 78.7364C53.4499 79.9079 51.5503 79.9078 50.3788 78.736L35.8709 64.2252C34.6995 63.0536 34.6996 61.1543 35.8711 59.9828L36.9277 58.9262C38.0992 57.7547 39.9984 57.7546 41.1701 58.9259L50.3785 68.1318C51.5502 69.3032 53.4496 69.303 54.621 68.1314L78.8224 43.9268C79.994 42.7551 81.8936 42.755 83.0652 43.9266L84.1286 44.99C85.3002 46.1616 85.3001 48.0612 84.1284 49.2327L54.6215 78.7364Z" fill="url(#paint0_linear)"/>
<path d="M60 8.05518C49.6165 8.05518 39.4662 11.1342 30.8326 16.903C22.199 22.6718 15.4699 30.8712 11.4963 40.4643C7.52275 50.0574 6.48307 60.6134 8.5088 70.7974C10.5345 80.9814 15.5347 90.336 22.8769 97.6783C30.2192 105.021 39.5738 110.021 49.7578 112.046C59.9418 114.072 70.4978 113.032 80.0909 109.059C89.684 105.085 97.8834 98.3562 103.652 89.7226C109.421 81.089 112.5 70.9387 112.5 60.5552C112.5 46.6313 106.969 33.2777 97.1231 23.4321C87.2775 13.5864 73.9239 8.05518 60 8.05518ZM60 105.555C51.0999 105.555 42.3996 102.916 34.9994 97.9713C27.5992 93.0266 21.8314 85.9986 18.4254 77.7759C15.0195 69.5533 14.1284 60.5053 15.8647 51.7761C17.601 43.047 21.8869 35.0287 28.1802 28.7354C34.4736 22.442 42.4918 18.1562 51.221 16.4198C59.9501 14.6835 68.9981 15.5747 77.2208 18.9806C85.4435 22.3865 92.4715 28.1543 97.4162 35.5545C102.361 42.9547 105 51.655 105 60.5552C105 72.4899 100.259 83.9358 91.8198 92.375C83.3807 100.814 71.9348 105.555 60 105.555Z" fill="url(#paint1_linear)"/>
<defs>
<linearGradient id="paint0_linear" x1="86.25" y1="41.8052" x2="33.75" y2="80.8577" gradientUnits="userSpaceOnUse">
<stop offset="0.244792" stop-color="#B10000"/>
<stop offset="1" stop-color="#F16228"/>
</linearGradient>
<linearGradient id="paint1_linear" x1="112.5" y1="8.05518" x2="7.49999" y2="113.055" gradientUnits="userSpaceOnUse">
<stop offset="0.314286" stop-color="#B10000"/>
<stop offset="1" stop-color="#F16228"/>
</linearGradient>
</defs>
</svg>
