<svg width="42" height="42" viewBox="0 0 42 42" fill="none" xmlns="http://www.w3.org/2000/svg">
<path fill-rule="evenodd" clip-rule="evenodd" d="M32.1615 9.84905C30.7081 8.38668 28.979 7.22719 27.0744 6.43776C25.1697 5.64832 23.1274 5.24463 21.0656 5.25005C12.4228 5.25005 5.38125 12.2851 5.38125 20.9279C5.3747 23.6799 6.09651 26.3846 7.47337 28.7674L5.25 36.8931L13.566 34.7091C15.8655 35.9618 18.4418 36.6192 21.0604 36.6214H21.0669C29.7111 36.6214 36.7447 29.5877 36.75 20.9384C36.75 16.7502 35.1199 12.8127 32.1615 9.84774V9.84905ZM21.0656 33.9715H21.0604C18.7262 33.9715 16.4348 33.3446 14.4257 32.1563L13.9493 31.8741L9.01163 33.1669L10.3294 28.3566L10.0223 27.8644C8.71579 25.7869 8.02412 23.382 8.02725 20.9279C8.02725 13.7459 13.8771 7.9013 21.0709 7.9013C22.7829 7.89703 24.4788 8.2324 26.0604 8.888C27.6419 9.5436 29.0777 10.5064 30.2846 11.7207C31.4975 12.9291 32.4589 14.3659 33.1133 15.948C33.7677 17.5301 34.1022 19.2262 34.0974 20.9384C34.0974 28.1269 28.2476 33.9715 21.0643 33.9715H21.0656ZM28.2122 24.2091C27.8224 24.0149 25.8943 23.0672 25.536 22.9386C25.1777 22.8047 24.9152 22.7431 24.654 23.1329C24.3915 23.5266 23.6434 24.4099 23.4137 24.6711C23.1879 24.9271 22.9569 24.9638 22.5671 24.7682C22.1734 24.574 20.9121 24.1579 19.4145 22.8205C18.2503 21.7836 17.4615 20.4974 17.2358 20.1076C17.0048 19.7138 17.2095 19.5038 17.4051 19.3069C17.5836 19.1337 17.7988 18.8515 17.9944 18.6205C18.1886 18.3961 18.2569 18.232 18.3881 17.9695C18.5168 17.7083 18.4511 17.4773 18.3527 17.2831C18.2556 17.0888 17.472 15.1555 17.1439 14.3706C16.8249 13.6067 16.5021 13.7144 16.2619 13.6999C16.0361 13.6894 15.7749 13.6894 15.5138 13.6894C15.2513 13.6894 14.826 13.7866 14.4664 14.1816C14.1081 14.5714 13.0974 15.5204 13.0974 17.4471C13.0974 19.3752 14.5018 21.2402 14.6987 21.5027C14.8929 21.7587 17.4615 25.7159 21.3924 27.4142C22.3269 27.8185 23.0541 28.06 23.6237 28.2398C24.5621 28.5364 25.4179 28.4957 26.0951 28.3973C26.8485 28.2857 28.4117 27.4497 28.7398 26.5322C29.064 25.6201 29.064 24.8352 28.9656 24.6711C28.8684 24.5071 28.6073 24.4086 28.2122 24.2091Z" fill="url(#paint0_linear)"/>
<defs>
<linearGradient id="paint0_linear" x1="36.75" y1="5.25" x2="-0.66211" y2="36.8931" gradientUnits="userSpaceOnUse">
<stop stop-color="#B10000"/>
<stop offset="1" stop-color="#F16228"/>
</linearGradient>
</defs>
</svg>
