<svg width="72" height="72" viewBox="0 0 72 72" fill="none" xmlns="http://www.w3.org/2000/svg">
<path d="M44.8147 27.4344V5.24695H49.2522V27.4344H44.8147Z" fill="url(#paint0_linear)"/>
<path d="M53.6897 27.4344V5.24695H58.1272V27.4344H53.6897Z" fill="url(#paint1_linear)"/>
<path d="M62.5647 27.4344V5.24695H67.0022V27.4344H62.5647Z" fill="url(#paint2_linear)"/>
<path d="M35.9397 45.1844C34.7669 45.2111 33.6009 44.9998 32.5121 44.5633C31.4232 44.1267 30.4342 43.474 29.6047 42.6445C28.7752 41.815 28.1224 40.8259 27.6859 39.7371C27.2493 38.6483 27.038 37.4822 27.0647 36.3094C27.038 35.1367 27.2493 33.9706 27.6859 32.8818C28.1224 31.793 28.7752 30.8039 29.6047 29.9744C30.4342 29.1449 31.4232 28.4922 32.5121 28.0556C33.6009 27.6191 34.7669 27.4078 35.9397 27.4344V22.9969C33.3067 22.9969 30.7329 23.7777 28.5437 25.2405C26.3544 26.7033 24.6481 28.7824 23.6406 31.215C22.633 33.6475 22.3693 36.3242 22.883 38.9066C23.3967 41.489 24.6646 43.861 26.5263 45.7228C28.3881 47.5846 30.7602 48.8525 33.3426 49.3662C35.9249 49.8798 38.6016 49.6162 41.0342 48.6086C43.4667 47.601 45.5458 45.8947 47.0086 43.7055C48.4714 41.5162 49.2522 38.9424 49.2522 36.3094H44.8147C44.8414 37.4822 44.6301 38.6483 44.1935 39.7371C43.757 40.8259 43.1042 41.815 42.2747 42.6445C41.4452 43.474 40.4562 44.1267 39.3673 44.5633C38.2785 44.9998 37.1125 45.2111 35.9397 45.1844Z" fill="#323232"/>
<path d="M63.1837 41.495L57.2776 36.3094L54.4926 39.4875L60.3923 44.6688L55.4054 53.3072L48.1639 50.856C46.4595 52.284 44.5186 53.4032 42.4289 54.163L40.9265 61.6666H30.9527L29.4524 54.1651C27.377 53.3941 25.4504 52.2703 23.7576 50.8433L16.4738 53.3072L11.4869 44.6688L17.245 39.608C16.8511 37.4228 16.8461 35.1852 17.2303 32.9982L11.4869 27.9479L16.4738 19.3117L23.7153 21.7629C25.4202 20.3339 27.3618 19.214 29.4524 18.4538L30.9527 10.9523H35.9396V6.7261H30.9527C29.9757 6.72621 29.0289 7.06481 28.2734 7.6843C27.5179 8.30379 27.0004 9.16591 26.8089 10.124L25.7439 15.4447C24.7734 15.9101 23.8364 16.4424 22.9398 17.038L17.8262 15.3074C16.9009 14.9941 15.8956 15.0113 14.9816 15.3562C14.0677 15.7011 13.3016 16.3522 12.8139 17.1986L7.82698 25.8369C7.33846 26.6828 7.15802 27.6718 7.31636 28.6356C7.47469 29.5995 7.96202 30.4788 8.69547 31.1239L12.7759 34.7098C12.7399 35.2423 12.6956 35.7706 12.6956 36.3094C12.6956 36.8546 12.7167 37.3935 12.7547 37.9281L8.69758 41.495C7.96345 42.1396 7.47531 43.0186 7.3162 43.9825C7.15709 44.9464 7.33684 45.9356 7.82487 46.7819L12.8118 55.4203C13.2996 56.2676 14.0664 56.9194 14.9813 57.2643C15.8962 57.6092 16.9024 57.6259 17.8283 57.3115L22.9715 55.5703C23.8576 56.1682 24.7839 56.7041 25.7439 57.1741L26.8068 62.4949C26.9984 63.4533 27.5162 64.3157 28.2721 64.9352C29.028 65.5548 29.9753 65.8932 30.9527 65.8928H40.9265C41.9035 65.8927 42.8503 65.5541 43.6058 64.9346C44.3613 64.3151 44.8788 63.453 45.0703 62.4949L46.1353 57.172C47.1058 56.7074 48.0427 56.1757 48.9394 55.5809L54.0509 57.3094C54.9762 57.6234 55.9818 57.6068 56.8962 57.2623C57.8106 56.9178 58.5772 56.2668 59.0653 55.4203L64.0522 46.7819C64.5407 45.9361 64.7212 44.9471 64.5628 43.9832C64.4045 43.0194 63.9172 42.1401 63.1837 41.495Z" fill="#323232"/>
<defs>
<linearGradient id="paint0_linear" x1="49.2522" y1="5.24695" x2="44.8147" y2="27.4344" gradientUnits="userSpaceOnUse">
<stop stop-color="#B10000"/>
<stop offset="1" stop-color="#F16228"/>
</linearGradient>
<linearGradient id="paint1_linear" x1="58.1272" y1="5.24695" x2="53.6897" y2="27.4344" gradientUnits="userSpaceOnUse">
<stop stop-color="#B10000"/>
<stop offset="1" stop-color="#F16228"/>
</linearGradient>
<linearGradient id="paint2_linear" x1="67.0022" y1="5.24695" x2="62.5647" y2="27.4344" gradientUnits="userSpaceOnUse">
<stop stop-color="#B10000"/>
<stop offset="1" stop-color="#F16228"/>
</linearGradient>
</defs>
</svg>
