<svg width="72" height="72" viewBox="0 0 72 72" fill="none" xmlns="http://www.w3.org/2000/svg">
<path d="M55.9084 22.8215H55.7753C55.2108 17.9567 52.8781 13.4691 49.221 10.2118C45.5638 6.95447 40.8371 5.15472 35.9397 5.15472C31.0423 5.15472 26.3156 6.95447 22.6584 10.2118C19.0013 13.4691 16.6686 17.9567 16.1041 22.8215H15.9709C13.0287 22.8215 10.207 23.9903 8.12648 26.0708C6.046 28.1513 4.8772 30.973 4.8772 33.9153C4.8772 36.8575 6.046 39.6793 8.12648 41.7597C10.207 43.8402 13.0287 45.009 15.9709 45.009H20.4084V25.0403C20.4084 20.9211 22.0448 16.9707 24.9574 14.058C27.8701 11.1454 31.8206 9.50903 35.9397 9.50903C40.0588 9.50903 44.0093 11.1454 46.9219 14.058C49.8346 16.9707 51.4709 20.9211 51.4709 25.0403V47.2278C51.4695 49.2606 50.7701 51.2314 49.4899 52.8105C48.2097 54.3896 46.4261 55.4813 44.4375 55.9031C43.8452 53.8258 42.5157 52.0359 40.6981 50.8687C38.8805 49.7016 36.6997 49.2374 34.5643 49.5631C32.429 49.8888 30.4857 50.9821 29.0988 52.6381C27.7118 54.2941 26.9764 56.399 27.0304 58.5584C27.0844 60.7178 27.9241 62.7834 29.392 64.368C30.86 65.9526 32.8554 66.9474 35.0044 67.166C37.1534 67.3847 39.3083 66.812 41.0653 65.5555C42.8223 64.299 44.0607 62.4449 44.5484 60.3406C47.6968 59.8738 50.5738 58.2945 52.6579 55.8889C54.7419 53.4832 55.8951 50.4106 55.9084 47.2278V45.009C58.8507 45.009 61.6724 43.8402 63.7529 41.7597C65.8334 39.6793 67.0022 36.8575 67.0022 33.9153C67.0022 30.973 65.8334 28.1513 63.7529 26.0708C61.6724 23.9903 58.8507 22.8215 55.9084 22.8215ZM9.3147 33.9153C9.3147 32.1499 10.016 30.4569 11.2643 29.2086C12.5126 27.9603 14.2056 27.259 15.9709 27.259V40.5715C14.2056 40.5715 12.5126 39.8703 11.2643 38.622C10.016 37.3737 9.3147 35.6806 9.3147 33.9153ZM35.9397 62.759C35.062 62.759 34.2041 62.4988 33.4744 62.0112C32.7446 61.5236 32.1758 60.8305 31.84 60.0197C31.5041 59.2088 31.4162 58.3166 31.5875 57.4558C31.7587 56.595 32.1813 55.8043 32.8019 55.1838C33.4225 54.5632 34.2132 54.1405 35.074 53.9693C35.9348 53.7981 36.827 53.886 37.6379 54.2218C38.4487 54.5577 39.1417 55.1264 39.6293 55.8562C40.1169 56.5859 40.3772 57.4439 40.3772 58.3215C40.3772 59.4984 39.9097 60.6271 39.0775 61.4593C38.2453 62.2915 37.1166 62.759 35.9397 62.759ZM55.9084 40.5715V27.259C57.6738 27.259 59.3668 27.9603 60.6151 29.2086C61.8634 30.4569 62.5647 32.1499 62.5647 33.9153C62.5647 35.6806 61.8634 37.3737 60.6151 38.622C59.3668 39.8703 57.6738 40.5715 55.9084 40.5715Z" fill="#323232"/>
<path fill-rule="evenodd" clip-rule="evenodd" d="M35.9396 68.1932C41.4341 68.1932 45.8883 63.7055 45.8883 58.1698C45.8883 52.634 41.4341 48.1464 35.9396 48.1464C30.4451 48.1464 25.991 52.634 25.991 58.1698C25.991 63.7055 30.4451 68.1932 35.9396 68.1932ZM35.9397 63.1772C38.7328 63.1772 40.997 60.9353 40.997 58.1697C40.997 55.4042 38.7328 53.1623 35.9397 53.1623C33.1467 53.1623 30.8825 55.4042 30.8825 58.1697C30.8825 60.9353 33.1467 63.1772 35.9397 63.1772Z" fill="url(#paint0_linear)"/>
<defs>
<linearGradient id="paint0_linear" x1="45.8883" y1="48.1464" x2="25.8589" y2="68.0603" gradientUnits="userSpaceOnUse">
<stop stop-color="#B10000"/>
<stop offset="1" stop-color="#F37123"/>
</linearGradient>
</defs>
</svg>
