<svg width="72" height="72" viewBox="0 0 72 72" fill="none" xmlns="http://www.w3.org/2000/svg">
<path d="M31.6228 48.1488L20.5291 37.0528L23.6641 33.9178L31.6228 41.8742L48.452 25.0428L51.5916 28.1823L31.6228 48.1488Z" fill="url(#paint0_linear)"/>
<path d="M36.0603 5.07401C29.9167 5.07401 23.9111 6.89579 18.8029 10.309C13.6947 13.7222 9.71336 18.5735 7.36231 24.2494C5.01126 29.9253 4.39612 36.171 5.59467 42.1965C6.79323 48.222 9.75164 53.7568 14.0958 58.101C18.44 62.4452 23.9748 65.4036 30.0003 66.6021C36.0259 67.8007 42.2715 67.1856 47.9474 64.8345C53.6234 62.4835 58.4747 58.5021 61.8878 53.3939C65.301 48.2857 67.1228 42.2801 67.1228 36.1365C67.1228 27.8982 63.8502 19.9973 58.0248 14.172C52.1995 8.34665 44.2986 5.07401 36.0603 5.07401ZM36.0603 62.7615C30.7944 62.7615 25.6467 61.2 21.2683 58.2744C16.8898 55.3488 13.4772 51.1905 11.462 46.3255C9.44684 41.4604 8.91958 36.107 9.94691 30.9422C10.9742 25.7775 13.51 21.0334 17.2336 17.3098C20.9572 13.5862 25.7013 11.0504 30.866 10.0231C36.0308 8.99577 41.3842 9.52303 46.2493 11.5382C51.1143 13.5534 55.2726 16.966 58.1982 21.3444C61.1238 25.7229 62.6853 30.8706 62.6853 36.1365C62.6853 43.1979 59.8802 49.9701 54.887 54.9632C49.8939 59.9564 43.1217 62.7615 36.0603 62.7615Z" fill="#323232"/>
<defs>
<linearGradient id="paint0_linear" x1="51.5916" y1="25.0428" x2="20.5291" y2="51.4755" gradientUnits="userSpaceOnUse">
<stop stop-color="#B10000"/>
<stop offset="1" stop-color="#F16228"/>
</linearGradient>
</defs>
</svg>
