<svg width="71" height="72" viewBox="0 0 71 72" fill="none" xmlns="http://www.w3.org/2000/svg">
<path d="M66.385 37.7982L59.7287 22.2669C59.5589 21.8659 59.2748 21.5237 58.9118 21.2831C58.5488 21.0424 58.123 20.9139 57.6875 20.9135H51.0312V16.476C51.0312 15.8876 50.7975 15.3232 50.3814 14.9071C49.9653 14.491 49.4009 14.2573 48.8125 14.2573H6.65625C6.0678 14.2573 5.50345 14.491 5.08736 14.9071C4.67126 15.3232 4.4375 15.8876 4.4375 16.476V54.1948C4.4375 54.7832 4.67126 55.3476 5.08736 55.7637C5.50345 56.1798 6.0678 56.4135 6.65625 56.4135H11.4044C11.9153 58.2936 13.0307 59.9533 14.5785 61.1366C16.1263 62.3199 18.0205 62.961 19.9688 62.961C21.917 62.961 23.8112 62.3199 25.359 61.1366C26.9068 59.9533 28.0222 58.2936 28.5331 56.4135H42.4669C42.9778 58.2936 44.0932 59.9533 45.641 61.1366C47.1888 62.3199 49.083 62.961 51.0312 62.961C52.9795 62.961 54.8737 62.3199 56.4215 61.1366C57.9693 59.9533 59.0847 58.2936 59.5956 56.4135H64.3438C64.9322 56.4135 65.4965 56.1798 65.9126 55.7637C66.3287 55.3476 66.5625 54.7832 66.5625 54.1948V38.6635C66.5619 38.3661 66.5016 38.0718 66.385 37.7982ZM51.0312 25.351H56.2231L60.9712 36.4448H51.0312V25.351ZM19.9688 58.6323C19.0911 58.6323 18.2332 58.372 17.5034 57.8844C16.7737 57.3968 16.2049 56.7038 15.869 55.8929C15.5332 55.0821 15.4453 54.1898 15.6165 53.329C15.7877 52.4683 16.2104 51.6776 16.831 51.057C17.4516 50.4364 18.2422 50.0137 19.103 49.8425C19.9638 49.6713 20.8561 49.7592 21.6669 50.095C22.4778 50.4309 23.1708 50.9997 23.6584 51.7294C24.146 52.4592 24.4062 53.3171 24.4062 54.1948C24.4062 55.3717 23.9387 56.5004 23.1065 57.3326C22.2743 58.1647 21.1456 58.6323 19.9688 58.6323ZM42.4669 51.976H28.5331C28.0222 50.0959 26.9068 48.4362 25.359 47.2529C23.8112 46.0696 21.917 45.4285 19.9688 45.4285C18.0205 45.4285 16.1263 46.0696 14.5785 47.2529C13.0307 48.4362 11.9153 50.0959 11.4044 51.976H8.875V18.6948H46.5938V46.5623C45.5834 47.1486 44.6988 47.9287 43.9906 48.8577C43.2824 49.7868 42.7646 50.8464 42.4669 51.976ZM51.0312 58.6323C50.1536 58.6323 49.2957 58.372 48.5659 57.8844C47.8362 57.3968 47.2674 56.7038 46.9315 55.8929C46.5957 55.0821 46.5078 54.1898 46.679 53.329C46.8502 52.4683 47.2729 51.6776 47.8935 51.057C48.5141 50.4364 49.3047 50.0137 50.1655 49.8425C51.0263 49.6713 51.9186 49.7592 52.7294 50.095C53.5403 50.4309 54.2333 50.9997 54.7209 51.7294C55.2085 52.4592 55.4688 53.3171 55.4688 54.1948C55.4688 55.3717 55.0012 56.5004 54.169 57.3326C53.3368 58.1647 52.2081 58.6323 51.0312 58.6323ZM62.125 51.976H59.5956C59.105 50.0757 57.9983 48.3916 56.4486 47.1873C54.899 45.9829 52.9939 45.3261 51.0312 45.3198V40.8823H62.125V51.976Z" fill="#323232"/>
<path fill-rule="evenodd" clip-rule="evenodd" d="M20.0182 62.961C24.9197 62.961 28.8932 58.9841 28.8932 54.0784C28.8932 49.1727 24.9197 45.1959 20.0182 45.1959C15.1167 45.1959 11.1432 49.1727 11.1432 54.0784C11.1432 58.9841 15.1167 62.961 20.0182 62.961ZM20.0182 58.5159C22.5098 58.5159 24.5296 56.5291 24.5296 54.0784C24.5296 51.6276 22.5098 49.6409 20.0182 49.6409C17.5266 49.6409 15.5067 51.6276 15.5067 54.0784C15.5067 56.5291 17.5266 58.5159 20.0182 58.5159Z" fill="url(#paint0_linear)"/>
<path fill-rule="evenodd" clip-rule="evenodd" d="M51.0807 62.961C55.9822 62.961 59.9557 58.9841 59.9557 54.0784C59.9557 49.1727 55.9822 45.1959 51.0807 45.1959C46.1792 45.1959 42.2057 49.1727 42.2057 54.0784C42.2057 58.9841 46.1792 62.961 51.0807 62.961ZM51.0807 58.5159C53.5723 58.5159 55.5921 56.5291 55.5921 54.0784C55.5921 51.6276 53.5723 49.6409 51.0807 49.6409C48.5891 49.6409 46.5692 51.6276 46.5692 54.0784C46.5692 56.5291 48.5891 58.5159 51.0807 58.5159Z" fill="url(#paint1_linear)"/>
<defs>
<linearGradient id="paint0_linear" x1="28.8932" y1="45.1959" x2="11.1432" y2="62.961" gradientUnits="userSpaceOnUse">
<stop stop-color="#B10000"/>
<stop offset="1" stop-color="#F16228"/>
</linearGradient>
<linearGradient id="paint1_linear" x1="59.9557" y1="45.1959" x2="42.2057" y2="65.9836" gradientUnits="userSpaceOnUse">
<stop stop-color="#B10000"/>
<stop offset="1" stop-color="#F16228"/>
</linearGradient>
</defs>
</svg>
