<svg width="121" height="121" viewBox="0 0 121 121" fill="none" xmlns="http://www.w3.org/2000/svg">
<path d="M52.6621 80.8386L33.9121 62.0849L39.2109 56.7861L52.6621 70.2336L81.1059 41.7861L86.4121 47.0924L52.6621 80.8386Z" fill="url(#paint0_linear)"/>
<path d="M60.1621 8.03613C49.7786 8.03613 39.6283 11.1152 30.9947 16.884C22.3611 22.6528 15.6321 30.8521 11.6585 40.4453C7.68486 50.0384 6.64518 60.5944 8.67091 70.7784C10.6966 80.9624 15.6968 90.317 23.039 97.6592C30.3813 105.001 39.7359 110.002 49.9199 112.027C60.1039 114.053 70.6599 113.013 80.253 109.04C89.8461 105.066 98.0455 98.3372 103.814 89.7036C109.583 81.07 112.662 70.9197 112.662 60.5361C112.662 46.6123 107.131 33.2587 97.2852 23.413C87.4396 13.5674 74.086 8.03613 60.1621 8.03613ZM60.1621 105.536C51.262 105.536 42.5617 102.897 35.1615 97.9523C27.7613 93.0076 21.9935 85.9796 18.5876 77.7569C15.1816 69.5342 14.2905 60.4862 16.0268 51.7571C17.7631 43.0279 22.049 35.0097 28.3423 28.7163C34.6357 22.423 42.6539 18.1371 51.3831 16.4008C60.1122 14.6645 69.1602 15.5556 77.3829 18.9616C85.6056 22.3675 92.6336 28.1353 97.5783 35.5355C102.523 42.9357 105.162 51.636 105.162 60.5361C105.162 72.4709 100.421 83.9168 91.9819 92.3559C83.5428 100.795 72.0969 105.536 60.1621 105.536Z" fill="#323232"/>
<defs>
<linearGradient id="paint0_linear" x1="86.4121" y1="41.7861" x2="33.9121" y2="86.4612" gradientUnits="userSpaceOnUse">
<stop stop-color="#B10000"/>
<stop offset="1" stop-color="#F16228"/>
</linearGradient>
</defs>
</svg>
