<svg width="121" height="121" viewBox="0 0 121 121" fill="none" xmlns="http://www.w3.org/2000/svg">
<path d="M75.1621 45.5361V8.03613H82.6621V45.5361H75.1621Z" fill="url(#paint0_linear)"/>
<path d="M90.1621 45.5361V8.03613H97.6621V45.5361H90.1621Z" fill="url(#paint1_linear)"/>
<path d="M105.162 45.5361V8.03613H112.662V45.5361H105.162Z" fill="url(#paint2_linear)"/>
<path d="M60.1621 75.5361C58.1799 75.5813 56.2092 75.2241 54.3689 74.4862C52.5286 73.7484 50.857 72.6452 49.4551 71.2432C48.0531 69.8412 46.9499 68.1696 46.212 66.3293C45.4742 64.4891 45.117 62.5183 45.1621 60.5361C45.117 58.554 45.4742 56.5832 46.212 54.7429C46.9499 52.9027 48.0531 51.2311 49.4551 49.8291C50.857 48.4271 52.5286 47.3239 54.3689 46.586C56.2092 45.8482 58.1799 45.491 60.1621 45.5361V38.0361C55.712 38.0361 51.3619 39.3557 47.6618 41.8281C43.9617 44.3004 41.0778 47.8144 39.3748 51.9258C37.6719 56.0371 37.2263 60.5611 38.0945 64.9257C38.9626 69.2902 41.1055 73.2994 44.2522 76.446C47.3989 79.5927 51.408 81.7356 55.7726 82.6038C60.1372 83.472 64.6612 83.0264 68.7725 81.3234C72.8838 79.6205 76.3979 76.7366 78.8702 73.0365C81.3425 69.3364 82.6621 64.9862 82.6621 60.5361H75.1621C75.2072 62.5183 74.8501 64.4891 74.1122 66.3293C73.3744 68.1696 72.2711 69.8412 70.8692 71.2432C69.4672 72.6452 67.7956 73.7484 65.9553 74.4862C64.115 75.2241 62.1443 75.5813 60.1621 75.5361Z" fill="#323232"/>
<path d="M106.208 69.3004L96.2262 60.5361L91.5191 65.9076L101.491 74.6647L93.0619 89.2647L80.8226 85.1218C77.942 87.5354 74.6617 89.427 71.1298 90.7111L68.5905 103.393H51.7334L49.1976 90.7147C45.6899 89.4117 42.4336 87.5123 39.5726 85.1004L27.2619 89.2647L18.8334 74.6647L28.5655 66.1111C27.8997 62.4178 27.8912 58.636 28.5405 54.9397L18.8334 46.404L27.2619 31.8076L39.5012 35.9504C42.3826 33.5352 45.6642 31.6424 49.1976 30.3576L51.7334 17.679H60.1619V10.5361H51.7334C50.0821 10.5363 48.4819 11.1086 47.205 12.1556C45.9281 13.2027 45.0534 14.6597 44.7298 16.279L42.9298 25.2718C41.2894 26.0583 39.7058 26.9581 38.1905 27.9647L29.5476 25.0397C27.9838 24.5102 26.2848 24.5393 24.74 25.1222C23.1953 25.7051 21.9005 26.8056 21.0762 28.2361L12.6476 42.8361C11.822 44.2657 11.517 45.9372 11.7846 47.5663C12.0522 49.1954 12.8759 50.6815 14.1155 51.7718L21.0119 57.8326C20.9512 58.7326 20.8762 59.6254 20.8762 60.5361C20.8762 61.4576 20.9119 62.3683 20.9762 63.2718L14.1191 69.3004C12.8783 70.3898 12.0533 71.8755 11.7843 73.5046C11.5154 75.1338 11.8192 76.8057 12.6441 78.2361L21.0726 92.8361C21.8972 94.2683 23.1932 95.3698 24.7395 95.9528C26.2858 96.5357 27.9865 96.5639 29.5512 96.0326L38.2441 93.0897C39.7416 94.1002 41.3073 95.0059 42.9298 95.8004L44.7262 104.793C45.05 106.413 45.9252 107.871 47.2028 108.918C48.4804 109.965 50.0815 110.537 51.7334 110.536H68.5905C70.2418 110.536 71.842 109.964 73.1189 108.917C74.3957 107.87 75.2704 106.413 75.5941 104.793L77.3941 95.7968C79.0344 95.0115 80.6179 94.1129 82.1334 93.1076L90.7726 96.029C92.3365 96.5597 94.0361 96.5316 95.5816 95.9494C97.1271 95.3671 98.4227 94.2669 99.2476 92.8361L107.676 78.2361C108.502 76.8065 108.807 75.135 108.539 73.5059C108.272 71.8769 107.448 70.3908 106.208 69.3004Z" fill="#323232"/>
<defs>
<linearGradient id="paint0_linear" x1="82.6621" y1="8.03613" x2="75.1621" y2="45.5361" gradientUnits="userSpaceOnUse">
<stop stop-color="#B10000"/>
<stop offset="1" stop-color="#F16228"/>
</linearGradient>
<linearGradient id="paint1_linear" x1="97.6621" y1="8.03613" x2="90.1621" y2="45.5361" gradientUnits="userSpaceOnUse">
<stop stop-color="#B10000"/>
<stop offset="1" stop-color="#F16228"/>
</linearGradient>
<linearGradient id="paint2_linear" x1="112.662" y1="8.03613" x2="105.162" y2="45.5361" gradientUnits="userSpaceOnUse">
<stop stop-color="#B10000"/>
<stop offset="1" stop-color="#F16228"/>
</linearGradient>
</defs>
</svg>
