<svg width="121" height="121" viewBox="0 0 121 121" fill="none" xmlns="http://www.w3.org/2000/svg">
<path d="M112.362 62.8236L101.112 36.5736C100.825 35.8958 100.345 35.3175 99.7313 34.9107C99.1178 34.504 98.3982 34.2867 97.6621 34.2861H86.4121V26.7861C86.4121 25.7916 86.017 24.8377 85.3138 24.1345C84.6105 23.4312 83.6567 23.0361 82.6621 23.0361H11.4121C10.4175 23.0361 9.46372 23.4312 8.76046 24.1345C8.0572 24.8377 7.66211 25.7916 7.66211 26.7861V90.5361C7.66211 91.5307 8.0572 92.4845 8.76046 93.1878C9.46372 93.8911 10.4175 94.2861 11.4121 94.2861H19.4371C20.3007 97.4638 22.1859 100.269 24.8018 102.269C27.4178 104.269 30.6192 105.352 33.9121 105.352C37.205 105.352 40.4064 104.269 43.0224 102.269C45.6384 100.269 47.5235 97.4638 48.3871 94.2861H71.9371C72.8007 97.4638 74.6859 100.269 77.3018 102.269C79.9178 104.269 83.1192 105.352 86.4121 105.352C89.705 105.352 92.9064 104.269 95.5224 102.269C98.1384 100.269 100.024 97.4638 100.887 94.2861H108.912C109.907 94.2861 110.861 93.8911 111.564 93.1878C112.267 92.4845 112.662 91.5307 112.662 90.5361V64.2861C112.661 63.7835 112.559 63.2861 112.362 62.8236ZM86.4121 41.7861H95.1871L103.212 60.5361H86.4121V41.7861ZM33.9121 98.0361C32.4287 98.0361 30.9787 97.5963 29.7453 96.7722C28.512 95.9481 27.5507 94.7767 26.983 93.4063C26.4154 92.0358 26.2668 90.5278 26.5562 89.073C26.8456 87.6181 27.5599 86.2817 28.6088 85.2328C29.6577 84.1839 30.9941 83.4696 32.4489 83.1802C33.9038 82.8909 35.4118 83.0394 36.7822 83.607C38.1527 84.1747 39.324 85.136 40.1481 86.3694C40.9722 87.6027 41.4121 89.0528 41.4121 90.5361C41.4121 92.5253 40.6219 94.4329 39.2154 95.8394C37.8089 97.246 35.9012 98.0361 33.9121 98.0361ZM71.9371 86.7861H48.3871C47.5235 83.6085 45.6384 80.8033 43.0224 78.8034C40.4064 76.8034 37.205 75.7199 33.9121 75.7199C30.6192 75.7199 27.4178 76.8034 24.8018 78.8034C22.1859 80.8033 20.3007 83.6085 19.4371 86.7861H15.1621V30.5361H78.9121V77.6361C77.2045 78.6272 75.7094 79.9456 74.5125 81.5158C73.3155 83.086 72.4403 84.877 71.9371 86.7861ZM86.4121 98.0361C84.9287 98.0361 83.4787 97.5963 82.2453 96.7722C81.012 95.9481 80.0507 94.7767 79.483 93.4063C78.9154 92.0358 78.7668 90.5278 79.0562 89.073C79.3456 87.6181 80.0599 86.2817 81.1088 85.2328C82.1577 84.1839 83.4941 83.4696 84.9489 83.1802C86.4038 82.8909 87.9118 83.0394 89.2822 83.607C90.6527 84.1747 91.824 85.136 92.6481 86.3694C93.4722 87.6027 93.9121 89.0528 93.9121 90.5361C93.9121 92.5253 93.1219 94.4329 91.7154 95.8394C90.3089 97.246 88.4012 98.0361 86.4121 98.0361ZM105.162 86.7861H100.887C100.058 83.5744 98.1874 80.728 95.5683 78.6925C92.9492 76.6569 89.7292 75.5469 86.4121 75.5361V68.0361H105.162V86.7861Z" fill="#323232"/>
<path fill-rule="evenodd" clip-rule="evenodd" d="M33.9956 105.353C42.2799 105.353 48.9956 98.6312 48.9956 90.3399C48.9956 82.0486 42.2799 75.3271 33.9956 75.3271C25.7113 75.3271 18.9956 82.0486 18.9956 90.3399C18.9956 98.6312 25.7113 105.353 33.9956 105.353ZM33.9956 97.8398C38.2068 97.8398 41.6206 94.482 41.6206 90.3398C41.6206 86.1977 38.2068 82.8398 33.9956 82.8398C29.7844 82.8398 26.3706 86.1977 26.3706 90.3398C26.3706 94.482 29.7844 97.8398 33.9956 97.8398Z" fill="url(#paint0_linear)"/>
<path fill-rule="evenodd" clip-rule="evenodd" d="M86.4956 105.353C94.7799 105.353 101.496 98.6312 101.496 90.3399C101.496 82.0486 94.7799 75.3271 86.4956 75.3271C78.2113 75.3271 71.4956 82.0486 71.4956 90.3399C71.4956 98.6312 78.2113 105.353 86.4956 105.353ZM86.4956 97.8398C90.7068 97.8398 94.1206 94.482 94.1206 90.3398C94.1206 86.1977 90.7068 82.8398 86.4956 82.8398C82.2844 82.8398 78.8706 86.1977 78.8706 90.3398C78.8706 94.482 82.2844 97.8398 86.4956 97.8398Z" fill="url(#paint1_linear)"/>
<defs>
<linearGradient id="paint0_linear" x1="48.9956" y1="75.3271" x2="18.9956" y2="105.353" gradientUnits="userSpaceOnUse">
<stop stop-color="#B10000"/>
<stop offset="1" stop-color="#F16228"/>
</linearGradient>
<linearGradient id="paint1_linear" x1="101.496" y1="75.3271" x2="71.4956" y2="110.461" gradientUnits="userSpaceOnUse">
<stop stop-color="#B10000"/>
<stop offset="1" stop-color="#F16228"/>
</linearGradient>
</defs>
</svg>
