<svg width="82" height="77" viewBox="0 0 82 77" fill="none" xmlns="http://www.w3.org/2000/svg">
<path d="M79.1057 0.270999C64.0271 6.09141 52.567 17.2202 42.6489 29.4328C33.7472 40.3994 25.266 53.0644 19.5184 66.2158C19.2556 65.8488 18.9928 65.4818 18.7211 65.0722C17.0302 62.5631 15.5319 59.9089 14.3491 57.1352C12.0624 51.7586 10.8095 46.0747 10.5642 40.2714C10.3013 33.8877 0.172963 33.8365 0.339432 40.2714C0.514663 47.2098 1.80261 54.0287 4.50116 60.4636C6.63898 65.5671 10.3714 74.9208 16.4431 76.1412C19.1855 76.6874 21.8753 74.9549 21.9016 72.0874C21.9016 71.9338 21.8841 71.8057 21.8753 71.6607C25.6077 65.6696 28.7356 59.2176 32.2577 53.1412C36.2355 46.2796 40.4848 39.5374 45.33 33.2135C54.7223 20.9667 67.0235 11.2205 80.5338 3.56525C82.2774 2.57527 81.1033 -0.497091 79.1057 0.270999Z" fill="#B10000"/>
</svg>
