<svg width="25" height="25" viewBox="0 0 25 25" fill="none" xmlns="http://www.w3.org/2000/svg">
<path d="M21.6621 4.56104H3.66211C3.26428 4.56104 2.88275 4.71907 2.60145 5.00037C2.32014 5.28168 2.16211 5.66321 2.16211 6.06104V18.061C2.16211 18.4589 2.32014 18.8404 2.60145 19.1217C2.88275 19.403 3.26428 19.561 3.66211 19.561H21.6621C22.0599 19.561 22.4415 19.403 22.7228 19.1217C23.0041 18.8404 23.1621 18.4589 23.1621 18.061V6.06104C23.1621 5.66321 23.0041 5.28168 22.7228 5.00037C22.4415 4.71907 22.0599 4.56104 21.6621 4.56104ZM20.0121 6.06104L12.6621 11.146L5.31211 6.06104H20.0121ZM3.66211 18.061V6.74354L12.2346 12.676C12.3602 12.7631 12.5093 12.8098 12.6621 12.8098C12.8149 12.8098 12.9641 12.7631 13.0896 12.676L21.6621 6.74354V18.061H3.66211Z" fill="white"/>
</svg>
