<svg width="152" height="65" viewBox="0 0 152 65" fill="none" xmlns="http://www.w3.org/2000/svg">
<g filter="url(#filter0_d)">
<g clip-path="url(#clip0)">
<path d="M28.414 34.8853L21.2676 41.2065L25.0269 47.8388L31.6657 41.5628L28.414 34.8853Z" fill="#A8A8A8"/>
<path d="M21.434 41.2348L28.3717 35.0974L31.505 41.5317L25.0579 47.6267L21.434 41.2348ZM21.2676 41.2065L25.0269 47.8388L31.6629 41.5628L28.4112 34.8853L21.2676 41.2065Z" fill="white"/>
<path d="M28.414 34.8853L21.2676 41.2065L25.0269 47.8388L31.6657 41.5628L28.414 34.8853Z" fill="url(#paint0_linear)"/>
<path d="M22.5112 32.2578L15.5735 38.0671L21.2675 41.2065L28.4139 34.8853L22.5112 32.2578Z" fill="#D7D7D7"/>
<path d="M15.8019 38.0445L22.5366 32.4077L28.1799 34.9221L21.2534 41.0509L15.8019 38.0445ZM15.5735 38.0671L21.2703 41.2093L28.4168 34.8881L22.514 32.2578L15.5735 38.0671Z" fill="white"/>
<path d="M22.5112 32.2578L15.5735 38.0671L21.2675 41.2065L28.4139 34.8853L22.5112 32.2578Z" fill="url(#paint1_linear)"/>
<path d="M33.2647 16.3289L29.8748 7.76489L23.4871 6.72125L26.9869 14.8101L33.2647 16.3289Z" fill="#909090"/>
<path d="M23.7014 6.88812L29.779 7.88085L33.0504 16.1479L27.0828 14.7055L23.7014 6.88812ZM23.4871 6.72125L26.9869 14.8101L33.2647 16.3289L29.8748 7.76489L23.4871 6.72125Z" fill="white"/>
<path d="M33.2647 16.3289L29.8748 7.76489L23.4871 6.72125L26.9869 14.8101L33.2647 16.3289Z" fill="url(#paint2_linear)"/>
<path d="M36.8125 2.75879L29.8748 7.76485L33.2647 16.3289L39.7089 11.221L36.8125 2.75879Z" fill="#A8A8A8"/>
<path d="M30.0327 7.8101L36.7448 2.96808L39.5537 11.1786L33.3211 16.1168L30.0327 7.8101ZM29.8748 7.76485L33.2647 16.3289L39.7089 11.2238L36.8125 2.75879L29.8748 7.76485Z" fill="white"/>
<path d="M36.8125 2.75879L29.8748 7.76485L33.2647 16.3289L39.7089 11.221L36.8125 2.75879Z" fill="url(#paint3_linear)"/>
<path d="M57.7668 40.4004L55.6854 32.9507L47.3743 30.1903L49.7489 37.3091L57.7668 40.4004Z" fill="#909090"/>
<path d="M47.5801 30.3939L55.5755 33.0497L57.5694 40.1883L49.8561 37.2129L47.5801 30.3939ZM47.3743 30.1903L49.7489 37.3091L57.7639 40.4004L55.6826 32.9507L47.3743 30.1903Z" fill="white"/>
<path d="M57.7668 40.4004L55.6854 32.9507L47.3743 30.1903L49.7489 37.3091L57.7668 40.4004Z" fill="url(#paint4_linear)"/>
<path d="M53.3306 24.4093L47.3743 30.1903L55.6854 32.9507L61.6728 26.6493L53.3306 24.4093Z" fill="#D7D7D7"/>
<path d="M47.6196 30.1366L53.3729 24.5535L61.433 26.7172L55.6488 32.8008L47.6196 30.1366ZM47.3743 30.1903L55.6854 32.9507L61.6756 26.6493L53.3334 24.4093L47.3743 30.1903Z" fill="white"/>
<path d="M53.3306 24.4093L47.3743 30.1903L55.6854 32.9507L61.6728 26.6493L53.3306 24.4093Z" fill="url(#paint5_linear)"/>
<path d="M24.0314 25.8885L16.1743 32.2238L20.4667 39.7923L27.7231 33.4655L24.0314 25.8885Z" fill="#A8A8A8"/>
<path d="M16.3407 32.255L23.9863 26.0921L27.5623 33.4343L20.5005 39.5915L16.3407 32.255ZM16.1743 32.2238L20.4667 39.7952L27.7231 33.4655L24.0314 25.8885L16.1743 32.2238Z" fill="white"/>
<path d="M24.0314 25.8885L16.1743 32.2238L20.4667 39.7923L27.7231 33.4655L24.0314 25.8885Z" fill="url(#paint6_linear)"/>
<path d="M18.0441 23.6768L10.4492 29.4832L16.1743 32.2238L24.0314 25.8885L18.0441 23.6768Z" fill="#D7D7D7"/>
<path d="M10.6946 29.4578L18.0666 23.821L23.7719 25.9281L16.1545 32.0683L10.6946 29.4578ZM10.4492 29.4832L16.1743 32.2238L24.0342 25.8885L18.0441 23.6768L10.4492 29.4832Z" fill="white"/>
<path d="M18.0441 23.6768L10.4492 29.4832L16.1743 32.2238L24.0314 25.8885L18.0441 23.6768Z" fill="url(#paint7_linear)"/>
<path d="M24.7563 23.0715L20.6613 14.4113L14.5583 12.8558L18.7069 21.038L24.7563 23.0715Z" fill="#909090"/>
<path d="M14.8037 13.0509L20.5682 14.5188L24.5053 22.8538L18.8 20.9333L14.8037 13.0509ZM14.5583 12.8558L18.7069 21.038L24.7534 23.0715L20.6613 14.4113L14.5583 12.8558Z" fill="white"/>
<path d="M24.7563 23.0715L20.6613 14.4113L14.5583 12.8558L18.7069 21.038L24.7563 23.0715Z" fill="url(#paint8_linear)"/>
<path d="M28.4111 8.81982L20.6611 14.4113L24.7561 23.0715L31.9082 17.4037L28.4111 8.81982Z" fill="#A8A8A8"/>
<path d="M20.8247 14.4509L28.3519 9.02063L31.7502 17.3584L24.804 22.8679L20.8247 14.4509ZM20.6611 14.4113L24.7561 23.0744L31.911 17.4037L28.4111 8.81982L20.6611 14.4113Z" fill="white"/>
<path d="M28.4111 8.81982L20.6611 14.4113L24.7561 23.0715L31.9082 17.4037L28.4111 8.81982Z" fill="url(#paint9_linear)"/>
<path d="M36.5927 38.5311L29.2122 45.5877L32.839 52.5283L39.6639 45.5424L36.5927 38.5311Z" fill="#A8A8A8"/>
<path d="M29.3729 45.6158L36.5475 38.7543L39.5088 45.5168L32.8728 52.3075L29.3729 45.6158ZM29.2122 45.5875L32.839 52.5253L39.6611 45.5422L36.5898 38.5281L29.2122 45.5875Z" fill="white"/>
<path d="M36.5927 38.5311L29.2122 45.5877L32.839 52.5283L39.6639 45.5424L36.5927 38.5311Z" fill="url(#paint10_linear)"/>
<path d="M29.6886 35.4537L22.5027 41.8881L29.212 45.5875L36.5925 38.5309L29.6886 35.4537Z" fill="#D7D7D7"/>
<path d="M22.7255 41.8626L29.714 35.6065L36.364 38.5705L29.1894 45.4291L22.7255 41.8626ZM22.5027 41.8881L29.2148 45.5903L36.5953 38.5309L29.6914 35.4537L22.5027 41.8881Z" fill="white"/>
<path d="M29.6886 35.4537L22.5027 41.8881L29.212 45.5875L36.5925 38.5309L29.6886 35.4537Z" fill="url(#paint11_linear)"/>
<path d="M41.982 18.436L38.8149 9.22145L31.2595 7.99115L34.6212 16.657L41.982 18.436Z" fill="#909090"/>
<path d="M31.4626 8.15236L38.7162 9.33458L41.7789 18.255L34.7171 16.5467L31.4626 8.15236ZM31.2595 7.99115L34.6212 16.657L41.982 18.4388L38.8149 9.22145L31.2595 7.99115Z" fill="white"/>
<path d="M41.982 18.436L38.8149 9.22145L31.2595 7.99115L34.6212 16.657L41.982 18.436Z" fill="url(#paint12_linear)"/>
<path d="M45.9275 3.71478L38.8149 9.22145L41.982 18.436L48.5588 12.819L45.9275 3.71478Z" fill="#A8A8A8"/>
<path d="M38.9701 9.2667L45.8542 3.93539L48.4093 12.7738L42.0413 18.2126L38.9701 9.2667ZM38.8149 9.22145L41.9792 18.436L48.5588 12.819L45.9275 3.71478L38.8149 9.22145Z" fill="white"/>
<path d="M45.9275 3.71478L38.8149 9.22145L41.982 18.436L48.5588 12.819L45.9275 3.71478Z" fill="url(#paint13_linear)"/>
<path d="M50.3664 48.7354L47.7042 41.3479L39.4917 37.8408L42.4191 44.9228L50.3664 48.7354Z" fill="#909090"/>
<path d="M39.7342 38.0841L47.5998 41.4441L50.1352 48.4836L42.5234 44.8323L39.7342 38.0841ZM39.4917 37.8408L42.4191 44.9228L50.3664 48.7354L47.7042 41.3479L39.4917 37.8408Z" fill="white"/>
<path d="M50.3664 48.7354L47.7042 41.3479L39.4917 37.8408L42.4191 44.9228L50.3664 48.7354Z" fill="url(#paint14_linear)"/>
<path d="M46.1192 31.4093L39.4917 37.8408L47.7042 41.3479L54.4191 34.2828L46.1192 31.4093Z" fill="#D7D7D7"/>
<path d="M39.723 37.7984L46.1531 31.5592L54.185 34.3422L47.6703 41.1952L39.723 37.7984ZM39.4917 37.8408L47.7042 41.3479L54.4191 34.2828L46.1192 31.4093L39.4917 37.8408Z" fill="white"/>
<path d="M46.1192 31.4093L39.4917 37.8408L47.7042 41.3479L54.4191 34.2828L46.1192 31.4093Z" fill="url(#paint15_linear)"/>
<path d="M55.2398 31.3555L52.8454 22.783L44.1592 20.56L46.8694 28.6743L55.2398 31.3555Z" fill="#909090"/>
<path d="M44.3594 20.7438L52.7383 22.8905L55.048 31.1604L46.9709 28.5725L44.3594 20.7438ZM44.1592 20.56L46.8666 28.6743L55.237 31.3555L52.8426 22.783L44.1592 20.56Z" fill="white"/>
<path d="M55.2398 31.3555L52.8454 22.783L44.1592 20.56L46.8694 28.6743L55.2398 31.3555Z" fill="url(#paint16_linear)"/>
<path d="M50.657 14.8299L44.1592 20.56L52.8454 22.783L59.3968 16.5269L50.657 14.8299Z" fill="#D7D7D7"/>
<path d="M44.4299 20.4978L50.6964 14.9713L59.1261 16.6061L52.806 22.6416L44.4299 20.4978ZM44.1592 20.56L52.8426 22.783L59.3968 16.5269L50.657 14.8299L44.1592 20.56Z" fill="white"/>
<path d="M50.657 14.8299L44.1592 20.56L52.8454 22.783L59.3968 16.5269L50.657 14.8299Z" fill="url(#paint17_linear)"/>
<path d="M19.0198 15.5936L10.3081 21.878L15.2548 30.6004L23.2444 24.2707L19.0198 15.5936Z" fill="#A8A8A8"/>
<path d="M10.4801 21.9148L18.9718 15.7887L23.0837 24.2311L15.2942 30.4053L10.4801 21.9148ZM10.3081 21.878L15.2548 30.6004L23.2444 24.2679L19.0198 15.5936L10.3081 21.878Z" fill="white"/>
<path d="M19.0198 15.5936L10.3081 21.878L15.2548 30.6004L23.2444 24.2707L19.0198 15.5936Z" fill="url(#paint18_linear)"/>
<path d="M32.4129 28.9827L24.2456 36.0845L28.4336 44.0998L35.9354 37.032L32.4129 28.9827Z" fill="#A8A8A8"/>
<path d="M24.4092 36.1156L32.365 29.1976L35.7803 36.998L28.4703 43.8849L24.4092 36.1156ZM24.2456 36.0845L28.4364 44.0998L35.9382 37.0291L32.413 28.9827L24.2456 36.0845Z" fill="white"/>
<path d="M32.4129 28.9827L24.2456 36.0845L28.4336 44.0998L35.9354 37.032L32.4129 28.9827Z" fill="url(#paint19_linear)"/>
<path d="M25.3314 26.3665L17.4207 32.8206L24.2456 36.0844L32.4129 28.9826L25.3314 26.3665Z" fill="#D7D7D7"/>
<path d="M17.6604 32.7923L25.3567 26.5164L32.1619 29.0307L24.223 35.9345L17.6604 32.7923ZM17.4207 32.8206L24.2456 36.0873L32.4129 28.9826L25.3314 26.3665L17.4207 32.8206Z" fill="white"/>
<path d="M25.3314 26.3665L17.4207 32.8206L24.2456 36.0844L32.4129 28.9826L25.3314 26.3665Z" fill="url(#paint20_linear)"/>
<path d="M33.2197 25.9196L29.2827 16.606L21.9924 14.7479L26.0676 23.5127L33.2197 25.9196Z" fill="#909090"/>
<path d="M22.2237 14.9402L29.184 16.7135L32.9856 25.7046L26.1607 23.4081L22.2237 14.9402ZM21.9924 14.7479L26.0676 23.5127L33.2225 25.9196L29.2827 16.606L21.9924 14.7479Z" fill="white"/>
<path d="M33.2197 25.9196L29.2827 16.606L21.9924 14.7479L26.0676 23.5127L33.2197 25.9196Z" fill="url(#paint21_linear)"/>
<path d="M37.3091 10.3895L29.2827 16.6061L33.2197 25.9196L40.5918 19.6239L37.3091 10.3895Z" fill="#A8A8A8"/>
<path d="M29.4406 16.6457L37.2442 10.6045L40.4367 19.5843L33.2705 25.7047L29.4406 16.6457ZM29.2827 16.6061L33.2197 25.9196L40.589 19.6239L37.3062 10.3895L29.2827 16.6061Z" fill="white"/>
<path d="M37.3091 10.3895L29.2827 16.6061L33.2197 25.9196L40.5918 19.6239L37.3091 10.3895Z" fill="url(#paint22_linear)"/>
<path d="M38.0929 39.1984L30.6758 46.3964L38.6993 50.8198L46.28 42.8469L38.0929 39.1984Z" fill="#D7D7D7"/>
<path d="M30.8929 46.3683L38.1211 39.3542L46.0601 42.8896L38.6739 50.6588L30.8929 46.3683ZM30.6758 46.3966L38.6993 50.8229L46.2772 42.85L38.0901 39.2015L30.6758 46.3966Z" fill="white"/>
<path d="M38.0929 39.1984L30.6758 46.3964L38.6993 50.8198L46.28 42.8469L38.0929 39.1984Z" fill="url(#paint23_linear)"/>
<path d="M47.1317 39.7584L44.0435 31.1887L35.5039 28.1935L38.8656 36.3249L47.1317 39.7584Z" fill="#909090"/>
<path d="M35.7352 28.4113L43.9392 31.2905L46.9089 39.5265L38.9671 36.2259L35.7352 28.4113ZM35.5039 28.1935L38.8656 36.3249L47.1317 39.7584L44.0435 31.1859L35.5039 28.1935Z" fill="white"/>
<path d="M47.1317 39.7584L44.0435 31.1887L35.5039 28.1935L38.8656 36.3249L47.1317 39.7584Z" fill="url(#paint24_linear)"/>
<path d="M42.7857 21.7705L35.5039 28.1935L44.0435 31.1887L51.4522 24.1123L42.7857 21.7705Z" fill="#D7D7D7"/>
<path d="M35.7577 28.1455L42.8224 21.9148L51.1984 24.1774L44.0125 31.0416L35.7577 28.1455ZM35.5039 28.1935L44.0435 31.1887L51.4522 24.1123L42.7857 21.7705L35.5039 28.1935Z" fill="white"/>
<path d="M42.7857 21.7705L35.5039 28.1935L44.0435 31.1887L51.4522 24.1123L42.7857 21.7705Z" fill="url(#paint25_linear)"/>
<path d="M52.3294 20.939L49.5458 10.9722L40.4675 9.49298L43.581 18.8235L52.3294 20.939Z" fill="#909090"/>
<path d="M40.6593 9.65419L49.4415 11.0881L52.1432 20.7637L43.6826 18.716L40.6593 9.65419ZM40.4675 9.49298L43.581 18.8235L52.3294 20.939L49.5458 10.9722L40.4675 9.49298Z" fill="white"/>
<path d="M52.3294 20.939L49.5458 10.9722L40.4675 9.49298L43.581 18.8235L52.3294 20.939Z" fill="url(#paint26_linear)"/>
<path d="M27.5735 17.9269L18.4473 24.9948L23.3403 34.3564L31.6572 27.2546L27.5735 17.9269Z" fill="#A8A8A8"/>
<path d="M18.6137 25.0315L27.5199 18.1333L31.4964 27.2178L23.3798 34.1499L18.6137 25.0315ZM18.4473 24.9948L23.3403 34.3564L31.6543 27.2546L27.5735 17.9269L18.4473 24.9948Z" fill="white"/>
<path d="M27.5735 17.9269L18.4473 24.9948L23.3403 34.3564L31.6572 27.2546L27.5735 17.9269Z" fill="url(#paint27_linear)"/>
<path d="M33.9613 29.554L25.7432 36.8028L34.0177 40.7624L42.4642 32.6962L33.9613 29.554Z" fill="#D7D7D7"/>
<path d="M25.9744 36.7717L33.9895 29.7039L42.2245 32.7443L33.9923 40.6041L25.9744 36.7717ZM25.7432 36.8028L34.0177 40.7624L42.4642 32.6962L33.9613 29.554L25.7432 36.8028Z" fill="white"/>
<path d="M33.9613 29.554L25.7432 36.8028L34.0177 40.7624L42.4642 32.6962L33.9613 29.554Z" fill="url(#paint28_linear)"/>
<path d="M43.3753 29.3362L39.7485 19.2703L30.8845 17.0134L34.7821 26.4457L43.3753 29.3362Z" fill="#909090"/>
<path d="M31.1045 17.2L39.6498 19.375L43.1637 29.1269L34.8836 26.341L31.1045 17.2ZM30.8845 17.0134L34.7821 26.4457L43.3753 29.3362L39.7485 19.2703L30.8845 17.0134Z" fill="white"/>
<path d="M43.3753 29.3362L39.7485 19.2703L30.8845 17.0134L34.7821 26.4457L43.3753 29.3362Z" fill="url(#paint29_linear)"/>
<path d="M25.0269 47.8388L21.2675 41.2065L15.5735 38.0671L19.3836 44.4505L25.0269 47.8388Z" fill="#909090"/>
<path d="M15.9288 38.4093L21.1716 41.2998L24.6715 47.4711L19.4795 44.3544L15.9288 38.4093ZM15.5735 38.0671L19.3836 44.4505L25.0269 47.8388L21.2675 41.2065L15.5735 38.0671Z" fill="white"/>
<path d="M20.4666 39.7924L16.1743 32.2239L10.4492 29.4833L14.7613 36.7095L20.4666 39.7924Z" fill="#909090"/>
<path d="M10.782 29.7859L16.0812 32.32L20.131 39.4643L14.86 36.6134L10.782 29.7859ZM10.4492 29.4833L14.7641 36.7095L20.4666 39.7924L16.1743 32.2211L10.4492 29.4833Z" fill="white"/>
<path d="M32.8388 52.5281L29.212 45.5875L22.5027 41.8881L26.2451 48.5685L32.8388 52.5281Z" fill="#909090"/>
<path d="M22.8383 42.219L29.1161 45.6809L32.5116 52.1774L26.3438 48.4752L22.8383 42.219ZM22.5027 41.8881L26.2479 48.5685L32.8416 52.5253L29.2148 45.5875L22.5027 41.8881Z" fill="white"/>
<path d="M15.2548 30.6004L10.3082 21.878L4.60571 19.6946L9.52981 27.9419L15.2548 30.6004Z" fill="#909090"/>
<path d="M4.9103 19.9491L10.2179 21.9798L14.9418 30.312L9.62288 27.8429L4.9103 19.9491ZM4.60571 19.6946L9.52981 27.9419L15.2548 30.6004L10.3082 21.878L4.60571 19.6946Z" fill="white"/>
<path d="M28.4336 44.0998L24.2456 36.0845L17.4207 32.8206L21.7017 40.4598L28.4336 44.0998Z" fill="#909090"/>
<path d="M17.7337 33.1119L24.1469 36.1806L28.1206 43.783L21.7976 40.3665L17.7337 33.1119ZM17.4207 32.8206L21.7017 40.4626L28.4336 44.1026L24.2428 36.0873L17.4207 32.8206Z" fill="white"/>
<path d="M42.0751 58.0716L38.6993 50.8199L30.6758 46.3964L34.2716 53.3851L42.0751 58.0716Z" fill="#909090"/>
<path d="M30.986 46.7132L38.5978 50.9104L41.7761 57.7407L34.3703 53.2946L30.986 46.7132ZM30.6758 46.3964L34.2716 53.3879L42.0751 58.0716L38.6993 50.8227L30.6758 46.3964Z" fill="white"/>
<path d="M23.3405 34.3564L18.4474 24.9948L11.5576 22.356L16.5015 31.1803L23.3405 34.3564Z" fill="#909090"/>
<path d="M11.8453 22.6049L18.3515 25.0966L23.0472 34.0793L16.5945 31.0813L11.8453 22.6049ZM11.5576 22.356L16.5015 31.1803L23.3405 34.3564L18.4474 24.9948L11.5576 22.356Z" fill="white"/>
<path d="M37.9716 49.2558L34.0177 40.7625L25.7432 36.8029L29.903 44.8946L37.9716 49.2558Z" fill="#909090"/>
<path d="M26.0336 37.0857L33.9161 40.8586L37.6868 48.956L30.0017 44.8012L26.0336 37.0857ZM25.7432 36.8029L29.9058 44.8946L37.9744 49.2558L34.0205 40.7625L25.7432 36.8029Z" fill="white"/>
<path d="M33.1575 38.9156L28.4619 28.8271L19.9702 25.5774L24.8435 35.055L33.1575 38.9156Z" fill="#909090"/>
<path d="M20.241 25.8206L28.3632 28.9317L32.8868 38.6525L24.9366 34.9616L20.241 25.8206ZM19.9702 25.5774L24.8435 35.055L33.1575 38.9156L28.4619 28.8271L19.9702 25.5774Z" fill="white"/>
<path d="M61.6729 26.6493L55.6855 32.9507L57.7669 40.4004L63.3509 34.1131L61.6729 26.6493Z" fill="#A8A8A8"/>
<path d="M55.8322 32.9875L61.5995 26.918L63.2099 34.0764L57.8289 40.1374L55.8322 32.9875ZM55.6855 32.9507L57.7669 40.4004L63.3537 34.1103L61.6757 26.6493L55.6855 32.9507Z" fill="white"/>
<path d="M54.4193 34.2829L47.7043 41.3479L50.3666 48.7354L56.588 41.7269L54.4193 34.2829Z" fill="#A8A8A8"/>
<path d="M47.8538 41.3793L54.3544 34.5406L56.4414 41.6961L50.4146 48.484L47.8538 41.3793ZM47.7043 41.3482L50.3666 48.7357L56.588 41.7301L54.4193 34.286L47.7043 41.3482Z" fill="white"/>
<path d="M59.3968 16.5269L52.8455 22.7831L55.2398 31.3556L61.3146 25.057L59.3968 16.5269Z" fill="#A8A8A8"/>
<path d="M52.9921 22.8227L59.3207 16.7815L61.1736 25.0174L55.3047 31.1011L52.9921 22.8227ZM52.8455 22.7831L55.2398 31.3556L61.3174 25.057L59.3996 16.5269L52.8455 22.7831Z" fill="white"/>
<path d="M46.28 42.8469L38.6992 50.8198L42.075 58.0716L49.0494 50.2146L46.28 42.8469Z" fill="#A8A8A8"/>
<path d="M38.8572 50.8453L46.232 43.0873L48.8999 50.1863L42.1089 57.8312L38.8572 50.8453ZM38.6992 50.8198L42.075 58.0716L49.0494 50.2174L46.28 42.8469L38.6992 50.8198Z" fill="white"/>
<path d="M51.4524 24.1124L44.0437 31.1887L47.1318 39.7584L53.9539 32.6877L51.4524 24.1124Z" fill="#A8A8A8"/>
<path d="M44.196 31.2229L51.3875 24.3558L53.8073 32.6512L47.1854 39.5154L44.196 31.2229ZM44.0437 31.189L47.1318 39.7615L53.9539 32.6908L51.4552 24.1154L44.0437 31.189Z" fill="white"/>
<path d="M56.7713 4.85175L49.5459 10.9721L52.3295 20.939L58.988 14.697L56.7713 4.85175Z" fill="#A8A8A8"/>
<path d="M49.6954 11.0174L56.6923 5.09215L58.8413 14.6546L52.3971 20.6958L49.6954 11.0174ZM49.5459 10.9721L52.3295 20.939L58.9852 14.697L56.7713 4.85175L49.5459 10.9721Z" fill="white"/>
<path d="M42.4644 32.6962L34.0178 40.7624L37.9718 49.2558L45.6851 41.2602L42.4644 32.6962Z" fill="#A8A8A8"/>
<path d="M34.1758 40.7907L42.4108 32.9281L45.5328 41.2291L38.0112 49.0267L34.1758 40.7907ZM34.0178 40.7624L37.9718 49.2558L45.6851 41.2602L42.4644 32.6962L34.0178 40.7624Z" fill="white"/>
<path d="M48.0033 12.2788L39.7485 19.2703L43.3753 29.3362L50.9166 22.2655L48.0033 12.2788Z" fill="#A8A8A8"/>
<path d="M39.9036 19.3101L47.9356 12.5081L50.7699 22.2261L43.4346 29.1045L39.9036 19.3101ZM39.7485 19.2705L43.3753 29.3364L50.9138 22.2685L48.0033 12.2819L39.7485 19.2705Z" fill="white"/>
<path d="M37.9801 20.7693L28.4619 28.8271L33.1576 38.9155L41.7677 30.8436L37.9801 20.7693Z" fill="#A8A8A8"/>
<path d="M28.6227 28.8638L37.9209 20.9871L41.6126 30.8069L33.1999 38.6949L28.6227 28.8638ZM28.4619 28.8271L33.1576 38.9155L41.7677 30.8436L37.9801 20.7693L28.4619 28.8271Z" fill="white"/>
<path d="M30.2556 2.07153L23.4871 6.72123L29.8749 7.76487L36.8126 2.75881L30.2556 2.07153Z" fill="#D7D7D7"/>
<path d="M23.8283 6.6477L30.2922 2.20446L36.4601 2.85214L29.841 7.62911L23.8283 6.6477ZM23.4871 6.72123L29.8749 7.76204L36.8126 2.75598L30.2556 2.07153L23.4871 6.72123Z" fill="white"/>
<path d="M22.0658 7.70001L14.5583 12.856L20.6613 14.4115L28.4113 8.82001L22.0658 7.70001Z" fill="#D7D7D7"/>
<path d="M14.8686 12.802L22.0968 7.83555L28.0869 8.89332L20.6331 14.2699L14.8686 12.802ZM14.5583 12.8558L20.6613 14.4085L28.4113 8.81696L22.0658 7.69696L14.5583 12.8558Z" fill="white"/>
<path d="M38.2283 2.90869L31.2595 7.99112L38.8149 9.22142L45.9275 3.71475L38.2283 2.90869Z" fill="#D7D7D7"/>
<path d="M31.5867 7.91221L38.2678 3.04191L45.5947 3.8112L38.7782 9.08594L31.5867 7.91221ZM31.2595 7.9914L38.8149 9.22453L45.9275 3.71786L38.2283 2.9118L31.2595 7.9914Z" fill="white"/>
<path d="M12.9761 13.9446L4.60571 19.6945L10.3082 21.878L19.0198 15.5935L12.9761 13.9446Z" fill="#D7D7D7"/>
<path d="M4.88209 19.6634L13.0015 14.0861L18.7237 15.6473L10.2884 21.7337L4.88209 19.6634ZM4.60571 19.6945L10.3082 21.878L19.0198 15.5935L12.9761 13.9446L4.60571 19.6945Z" fill="white"/>
<path d="M29.7875 9.06305L21.9924 14.7479L29.2827 16.6061L37.309 10.3895L29.7875 9.06305Z" fill="#D7D7D7"/>
<path d="M22.2886 14.6913L29.8214 9.19881L36.996 10.4659L29.2517 16.4647L22.2886 14.6913ZM21.9924 14.7479L29.2827 16.6033L37.309 10.3895L29.7903 9.06305L21.9924 14.7479Z" fill="white"/>
<path d="M47.6027 3.89014L40.4675 9.49297L49.5458 10.9722L56.7712 4.85175L47.6027 3.89014Z" fill="#D7D7D7"/>
<path d="M40.7806 9.41406L47.645 4.02335L56.4582 4.9482L49.5063 10.8367L40.7806 9.41406ZM40.4675 9.49325L49.5458 10.9753L56.774 4.85487L47.6055 3.89325L40.4675 9.49325Z" fill="white"/>
<path d="M20.3398 15.9528L11.5576 22.356L18.4474 24.9948L27.5736 17.9269L20.3398 15.9528Z" fill="#D7D7D7"/>
<path d="M11.8255 22.3221L20.3652 16.0942L27.2888 17.9835L18.4248 24.8477L11.8255 22.3221ZM11.5576 22.356L18.4474 24.9948L27.5736 17.9269L20.3398 15.9528L11.5576 22.356Z" fill="white"/>
<path d="M38.9503 10.6808L30.8845 17.0134L39.7485 19.2703L48.0032 12.2788L38.9503 10.6808Z" fill="#D7D7D7"/>
<path d="M31.1694 16.954L38.987 10.8194L47.7071 12.358L39.7118 19.1289L31.1694 16.954ZM30.8845 17.0134L39.7513 19.2703L48.0061 12.2788L38.9532 10.6808L30.8845 17.0134Z" fill="white"/>
<path d="M29.1641 18.3624L19.9702 25.5774L28.4619 28.8271L37.9801 20.7693L29.1641 18.3624Z" fill="#D7D7D7"/>
<path d="M20.2297 25.5378L29.1951 18.5038L37.7094 20.8259L28.4365 28.68L20.2297 25.5378ZM19.9702 25.5774L28.4619 28.8271L37.9801 20.7665L29.1641 18.3624L19.9702 25.5774Z" fill="white"/>
<path d="M63.3508 34.1132L57.764 40.4033L55.6826 32.9536L61.6728 26.6521L63.3508 34.1132ZM54.4192 34.2829L47.7043 41.3479L50.3665 48.7354L56.5879 41.7297L54.4192 34.2829ZM59.3969 16.5269L52.8427 22.7831L55.237 31.3556L61.3146 25.057L59.3969 16.5269ZM46.28 42.8469L38.7021 50.8198L42.0751 58.0715L49.0495 50.2174L46.28 42.8469ZM51.4523 24.1124L44.0436 31.1887L47.1317 39.7612L53.9539 32.6905L51.4523 24.1124ZM56.7712 4.85175L49.543 10.9721L52.3266 20.939L58.9823 14.697L56.7712 4.85175ZM42.4643 32.6962L34.0177 40.7625L37.9717 49.2558L45.685 41.2602L42.4643 32.6962ZM48.0032 12.2788L39.7484 19.2703L43.3752 29.3362L50.9137 22.2683L48.0032 12.2788ZM37.9801 20.7693L28.4619 28.8271L33.1576 38.9156L41.7677 30.8437L37.9801 20.7693Z" fill="url(#paint30_linear)"/>
<path d="M25.0269 47.8388L19.3836 44.4505L15.5735 38.0671L21.2704 41.2093L25.0269 47.8388ZM16.1742 32.2239L10.4492 29.4833L14.7641 36.7095L20.4666 39.7924L16.1742 32.2239ZM22.5028 41.8881L26.248 48.5685L32.8417 52.5253L29.2149 45.5875L22.5028 41.8881ZM15.2548 30.6004L10.3082 21.878L4.60571 19.6946L9.52981 27.9419L15.2548 30.6004ZM21.7019 40.4598L28.4337 44.0998L24.2429 36.0845L17.418 32.8178L21.7019 40.4598ZM42.0751 58.0716L38.6993 50.8227L30.6758 46.3964L34.2716 53.3879L42.0751 58.0716ZM23.3404 34.3564L18.4473 24.9948L11.5575 22.356L16.5014 31.1802L23.3404 34.3564ZM29.903 44.8946L37.9717 49.2558L34.0177 40.7625L25.7432 36.8029L29.903 44.8946ZM24.8436 35.055L33.1576 38.9156L28.4619 28.8271L19.9702 25.5774L24.8436 35.055Z" fill="url(#paint31_linear)"/>
<path d="M36.8126 2.75881L29.8748 7.76487L23.4871 6.72406L30.2556 2.07153L36.8126 2.75881ZM22.0657 7.69982L14.5583 12.8558L20.6612 14.4085L28.4112 8.81699L22.0657 7.69982ZM38.2283 2.9087L31.2596 7.99113L38.8149 9.22426L45.9275 3.71759L38.2283 2.9087ZM12.9761 13.9447L4.60571 19.6946L10.3082 21.878L19.0198 15.5936L12.9761 13.9447ZM29.7874 9.06305L21.9895 14.7479L29.2798 16.6033L37.3061 10.3895L29.7874 9.06305ZM47.6027 3.89012L40.4676 9.49012L49.5459 10.9721L56.7741 4.85174L47.6027 3.89012ZM20.3397 15.9527L11.5575 22.356L18.4473 24.9948L27.5736 17.9269L20.3397 15.9527ZM38.9503 10.6808L30.8845 17.0134L39.7512 19.2703L48.006 12.2788L38.9503 10.6808ZM29.1642 18.3624L19.9703 25.5774L28.4619 28.8271L37.9801 20.7665L29.1642 18.3624Z" fill="url(#paint32_linear)"/>
</g>
</g>
<g filter="url(#filter1_d)">
<path d="M85.4844 13.5085V15.8403L77.7121 33.4184H74.6112L82.3835 15.6968H69.8994V7.69696H72.7587V13.5085H85.4844Z" fill="url(#paint33_linear)"/>
<path d="M106.932 31.2301V33.4184H100.972H89.3741V31.2301H100.972V20.0734C100.972 18.5189 100.596 17.4068 99.8446 16.7371C99.0929 16.0436 98.019 15.6968 96.6229 15.6968H89.3741V13.5085H97.3076C101.818 13.5085 104.073 15.7327 104.073 20.181V31.2301H106.932Z" fill="url(#paint34_linear)"/>
<path d="M111.659 17.7057V13.5085H114.76V17.7057V33.4184H111.659V17.7057Z" fill="url(#paint35_linear)"/>
<path d="M134.84 13.5085V15.8403L127.068 33.4184H123.967L131.74 15.6968H119.255V7.69696H122.115V13.5085H134.84Z" fill="url(#paint36_linear)"/>
<path d="M146.825 33.4184L145.818 28.5396C145.039 29.8549 144.073 30.9551 142.918 31.8399C141.791 32.7248 140.435 33.4184 138.851 33.9206L137.723 31.6964C139.522 31.1225 141.039 30.3691 142.274 29.4364C143.509 28.5037 144.516 27.3079 145.294 25.849V19.2483C145.294 18.0525 145.12 17.1915 144.771 16.6654C144.449 16.1153 143.818 15.7685 142.878 15.625L140.301 15.2663L140.744 13.1139L144.126 13.5802C145.684 13.7955 146.784 14.3336 147.429 15.1946C148.073 16.0555 148.395 17.335 148.395 19.033V25.9567L149.805 33.4184H146.825Z" fill="url(#paint37_linear)"/>
<path d="M77.5595 38.0887C80.7488 38.0887 82.3434 39.6614 82.3434 42.8069V52.167H80.1508H70.4405H69.8994V38.0887H72.0921H77.5595ZM80.1508 50.6197V42.7308C80.1508 41.6316 79.885 40.8452 79.3534 40.3717C78.8219 39.8813 78.0625 39.6361 77.0754 39.6361H72.0921V50.6197H80.1508Z" fill="black"/>
<path d="M86.5031 41.0566V38.0887H88.6673L88.6958 41.0566V44.8362L88.6673 46.4342L86.5031 46.8401V41.0566Z" fill="black"/>
<path d="M92.017 50.6197H96.9718V42.1727C96.9718 41.3441 96.782 40.7353 96.4023 40.3463C96.0416 39.9405 95.4911 39.6868 94.7507 39.5853L92.8428 39.3317L93.1561 37.8097L95.6335 38.1395C96.7725 38.3086 97.6458 38.7313 98.2533 39.4078C98.8608 40.0673 99.1645 40.972 99.1645 42.122V52.167H92.017V50.6197Z" fill="black"/>
<path d="M115.742 44.0244C115.932 49.3176 112.173 52.1163 104.466 52.4207L102.729 39.6361L102.529 38.0887H110.303C111.974 38.0887 113.274 38.5538 114.204 39.4839C115.154 40.3971 115.657 41.6485 115.714 43.2381L115.742 44.0244ZM106.402 50.6197C108.661 50.4337 110.446 49.8503 111.756 48.8694C113.065 47.8886 113.663 46.2567 113.55 43.9737V43.3649C113.55 42.2657 113.246 41.3694 112.638 40.6761C112.05 39.9827 111.215 39.6361 110.132 39.6361H104.921L106.402 50.6197Z" fill="black"/>
<path d="M126.547 38.0887C128.066 38.0887 129.243 38.52 130.078 39.3824C130.913 40.228 131.331 41.4878 131.331 43.162V52.167H129.138V43.0859C129.138 41.9529 128.872 41.0989 128.341 40.5239C127.828 39.932 127.069 39.6361 126.063 39.6361H121.222V52.167H119.029V38.7482V38.0887H126.547Z" fill="black"/>
<path d="M149.056 44.9884C149.056 47.3897 148.487 49.233 147.348 50.5182C146.228 51.8035 144.614 52.4461 142.507 52.4461C141.786 52.4461 141.007 52.37 140.172 52.2178L140.4 50.6704C141.026 50.8057 141.672 50.8734 142.336 50.8734C143.912 50.8734 145.07 50.3914 145.81 49.4275C146.57 48.4466 146.949 46.9923 146.949 45.0645C146.949 41.3779 145.592 39.5346 142.877 39.5346C141.852 39.5346 141.026 39.7967 140.4 40.321C139.773 40.8452 139.346 41.5301 139.118 42.3756L137.097 52.167H134.904L137.011 42.2995L134.818 38.0887H137.097L138.52 41.1327C138.9 40.0673 139.507 39.2725 140.343 38.7482C141.178 38.2071 142.127 37.9365 143.19 37.9365C144.994 37.9365 146.418 38.4946 147.462 39.6107C148.525 40.7099 149.056 42.5025 149.056 44.9884Z" fill="black"/>
</g>
<defs>
<filter id="filter0_d" x="0.605713" y="0.0715332" width="66.7451" height="64" filterUnits="userSpaceOnUse" color-interpolation-filters="sRGB">
<feFlood flood-opacity="0" result="BackgroundImageFix"/>
<feColorMatrix in="SourceAlpha" type="matrix" values="0 0 0 0 0 0 0 0 0 0 0 0 0 0 0 0 0 0 127 0"/>
<feOffset dy="2"/>
<feGaussianBlur stdDeviation="2"/>
<feColorMatrix type="matrix" values="0 0 0 0 0 0 0 0 0 0 0 0 0 0 0 0 0 0 0.25 0"/>
<feBlend mode="normal" in2="BackgroundImageFix" result="effect1_dropShadow"/>
<feBlend mode="normal" in="SourceGraphic" in2="effect1_dropShadow" result="shape"/>
</filter>
<filter id="filter1_d" x="67.8994" y="7.69696" width="83.9053" height="48.7491" filterUnits="userSpaceOnUse" color-interpolation-filters="sRGB">
<feFlood flood-opacity="0" result="BackgroundImageFix"/>
<feColorMatrix in="SourceAlpha" type="matrix" values="0 0 0 0 0 0 0 0 0 0 0 0 0 0 0 0 0 0 127 0"/>
<feOffset dy="2"/>
<feGaussianBlur stdDeviation="1"/>
<feColorMatrix type="matrix" values="0 0 0 0 0 0 0 0 0 0 0 0 0 0 0 0 0 0 0.35 0"/>
<feBlend mode="normal" in2="BackgroundImageFix" result="effect1_dropShadow"/>
<feBlend mode="normal" in="SourceGraphic" in2="effect1_dropShadow" result="shape"/>
</filter>
<linearGradient id="paint0_linear" x1="21.3787" y1="40.5112" x2="31.576" y2="42.1269" gradientUnits="userSpaceOnUse">
<stop stop-color="#D0D0D0"/>
<stop offset="0.4301" stop-color="#575757"/>
</linearGradient>
<linearGradient id="paint1_linear" x1="21.2443" y1="41.2035" x2="22.6659" y2="32.2812" gradientUnits="userSpaceOnUse">
<stop stop-color="#D0D0D0"/>
<stop offset="0.4301" stop-color="#575757"/>
</linearGradient>
<linearGradient id="paint2_linear" x1="30.8494" y1="8.53763" x2="26.3019" y2="14.265" gradientUnits="userSpaceOnUse">
<stop stop-color="#D0D0D0"/>
<stop offset="0.4301" stop-color="#575757"/>
</linearGradient>
<linearGradient id="paint3_linear" x1="29.7268" y1="8.69721" x2="39.8542" y2="10.3019" gradientUnits="userSpaceOnUse">
<stop stop-color="#D0D0D0"/>
<stop offset="0.4301" stop-color="#575757"/>
</linearGradient>
<linearGradient id="paint4_linear" x1="54.9767" y1="32.3888" x2="50.559" y2="37.9526" gradientUnits="userSpaceOnUse">
<stop stop-color="#D0D0D0"/>
<stop offset="0.4301" stop-color="#575757"/>
</linearGradient>
<linearGradient id="paint5_linear" x1="53.8524" y1="32.6591" x2="55.1212" y2="24.6959" gradientUnits="userSpaceOnUse">
<stop stop-color="#D0D0D0"/>
<stop offset="0.4301" stop-color="#575757"/>
</linearGradient>
<linearGradient id="paint6_linear" x1="16.2283" y1="31.8814" x2="27.6862" y2="33.6969" gradientUnits="userSpaceOnUse">
<stop stop-color="#D0D0D0"/>
<stop offset="0.4301" stop-color="#575757"/>
</linearGradient>
<linearGradient id="paint7_linear" x1="16.5133" y1="32.2773" x2="17.8877" y2="23.6509" gradientUnits="userSpaceOnUse">
<stop stop-color="#D0D0D0"/>
<stop offset="0.4301" stop-color="#575757"/>
</linearGradient>
<linearGradient id="paint8_linear" x1="21.8304" y1="15.3388" x2="17.8469" y2="20.3558" gradientUnits="userSpaceOnUse">
<stop stop-color="#D0D0D0"/>
<stop offset="0.4301" stop-color="#575757"/>
</linearGradient>
<linearGradient id="paint9_linear" x1="20.5694" y1="14.9884" x2="32.0046" y2="16.8003" gradientUnits="userSpaceOnUse">
<stop stop-color="#D0D0D0"/>
<stop offset="0.4301" stop-color="#575757"/>
</linearGradient>
<linearGradient id="paint10_linear" x1="29.3577" y1="44.6749" x2="39.5451" y2="46.2891" gradientUnits="userSpaceOnUse">
<stop stop-color="#D0D0D0"/>
<stop offset="0.4301" stop-color="#575757"/>
</linearGradient>
<linearGradient id="paint11_linear" x1="28.7075" y1="45.5077" x2="30.2939" y2="35.5504" gradientUnits="userSpaceOnUse">
<stop stop-color="#D0D0D0"/>
<stop offset="0.4301" stop-color="#575757"/>
</linearGradient>
<linearGradient id="paint12_linear" x1="39.4844" y1="9.75318" x2="34.2422" y2="16.3554" gradientUnits="userSpaceOnUse">
<stop stop-color="#D0D0D0"/>
<stop offset="0.4301" stop-color="#575757"/>
</linearGradient>
<linearGradient id="paint13_linear" x1="38.6563" y1="10.2317" x2="48.7161" y2="11.8257" gradientUnits="userSpaceOnUse">
<stop stop-color="#D0D0D0"/>
<stop offset="0.4301" stop-color="#575757"/>
</linearGradient>
<linearGradient id="paint14_linear" x1="46.9983" y1="40.787" x2="43.2142" y2="45.5528" gradientUnits="userSpaceOnUse">
<stop stop-color="#D0D0D0"/>
<stop offset="0.4301" stop-color="#575757"/>
</linearGradient>
<linearGradient id="paint15_linear" x1="46.1568" y1="41.1008" x2="47.6618" y2="31.6549" gradientUnits="userSpaceOnUse">
<stop stop-color="#D0D0D0"/>
<stop offset="0.4301" stop-color="#575757"/>
</linearGradient>
<linearGradient id="paint16_linear" x1="52.5324" y1="22.5358" x2="47.353" y2="29.0588" gradientUnits="userSpaceOnUse">
<stop stop-color="#D0D0D0"/>
<stop offset="0.4301" stop-color="#575757"/>
</linearGradient>
<linearGradient id="paint17_linear" x1="51.15" y1="22.514" x2="52.3316" y2="15.098" gradientUnits="userSpaceOnUse">
<stop stop-color="#D0D0D0"/>
<stop offset="0.4301" stop-color="#575757"/>
</linearGradient>
<linearGradient id="paint18_linear" x1="10.2881" y1="22.0064" x2="23.2768" y2="24.0645" gradientUnits="userSpaceOnUse">
<stop stop-color="#D0D0D0"/>
<stop offset="0.4301" stop-color="#575757"/>
</linearGradient>
<linearGradient id="paint19_linear" x1="24.3268" y1="35.5704" x2="35.8776" y2="37.4006" gradientUnits="userSpaceOnUse">
<stop stop-color="#D0D0D0"/>
<stop offset="0.4301" stop-color="#575757"/>
</linearGradient>
<linearGradient id="paint20_linear" x1="24.0993" y1="36.0621" x2="25.6361" y2="26.4162" gradientUnits="userSpaceOnUse">
<stop stop-color="#D0D0D0"/>
<stop offset="0.4301" stop-color="#575757"/>
</linearGradient>
<linearGradient id="paint21_linear" x1="30.1332" y1="17.2806" x2="25.5253" y2="23.0839" gradientUnits="userSpaceOnUse">
<stop stop-color="#D0D0D0"/>
<stop offset="0.4301" stop-color="#575757"/>
</linearGradient>
<linearGradient id="paint22_linear" x1="29.1901" y1="17.1876" x2="40.6881" y2="19.0094" gradientUnits="userSpaceOnUse">
<stop stop-color="#D0D0D0"/>
<stop offset="0.4301" stop-color="#575757"/>
</linearGradient>
<linearGradient id="paint23_linear" x1="37.525" y1="50.633" x2="39.3157" y2="39.3933" gradientUnits="userSpaceOnUse">
<stop stop-color="#D0D0D0"/>
<stop offset="0.4301" stop-color="#575757"/>
</linearGradient>
<linearGradient id="paint24_linear" x1="43.7917" y1="30.9882" x2="39.2883" y2="36.6599" gradientUnits="userSpaceOnUse">
<stop stop-color="#D0D0D0"/>
<stop offset="0.4301" stop-color="#575757"/>
</linearGradient>
<linearGradient id="paint25_linear" x1="42.7149" y1="30.9764" x2="44.1469" y2="21.9885" gradientUnits="userSpaceOnUse">
<stop stop-color="#D0D0D0"/>
<stop offset="0.4301" stop-color="#575757"/>
</linearGradient>
<linearGradient id="paint26_linear" x1="49.7655" y1="11.1477" x2="43.636" y2="18.8674" gradientUnits="userSpaceOnUse">
<stop stop-color="#D0D0D0"/>
<stop offset="0.4301" stop-color="#575757"/>
</linearGradient>
<linearGradient id="paint27_linear" x1="18.443" y1="25.0251" x2="31.6776" y2="27.1221" gradientUnits="userSpaceOnUse">
<stop stop-color="#D0D0D0"/>
<stop offset="0.4301" stop-color="#575757"/>
</linearGradient>
<linearGradient id="paint28_linear" x1="33.1719" y1="40.6268" x2="34.9117" y2="29.7066" gradientUnits="userSpaceOnUse">
<stop stop-color="#D0D0D0"/>
<stop offset="0.4301" stop-color="#575757"/>
</linearGradient>
<linearGradient id="paint29_linear" x1="40.1187" y1="19.5632" x2="34.7039" y2="26.3828" gradientUnits="userSpaceOnUse">
<stop stop-color="#D0D0D0"/>
<stop offset="0.4301" stop-color="#575757"/>
</linearGradient>
<linearGradient id="paint30_linear" x1="41.8405" y1="58.0715" x2="56.0566" y2="4.78478" gradientUnits="userSpaceOnUse">
<stop stop-color="#E5E5E5"/>
<stop offset="0.296875" stop-color="#F29221"/>
<stop offset="1" stop-color="#B10000"/>
</linearGradient>
<linearGradient id="paint31_linear" x1="29.214" y1="29.3365" x2="20.1193" y2="44.6654" gradientUnits="userSpaceOnUse">
<stop stop-color="white"/>
<stop offset="1" stop-color="#575757"/>
</linearGradient>
<linearGradient id="paint32_linear" x1="28.3963" y1="27.081" x2="32.2397" y2="2.42591" gradientUnits="userSpaceOnUse">
<stop stop-color="white"/>
<stop offset="1" stop-color="#575757"/>
</linearGradient>
<linearGradient id="paint33_linear" x1="169.676" y1="-2.76448" x2="49.6509" y2="33.8392" gradientUnits="userSpaceOnUse">
<stop offset="0.406122" stop-color="#B10000"/>
<stop offset="1" stop-color="#F16228"/>
</linearGradient>
<linearGradient id="paint34_linear" x1="169.676" y1="-2.76448" x2="49.6509" y2="33.8392" gradientUnits="userSpaceOnUse">
<stop offset="0.406122" stop-color="#B10000"/>
<stop offset="1" stop-color="#F16228"/>
</linearGradient>
<linearGradient id="paint35_linear" x1="169.676" y1="-2.76448" x2="49.6509" y2="33.8392" gradientUnits="userSpaceOnUse">
<stop offset="0.406122" stop-color="#B10000"/>
<stop offset="1" stop-color="#F16228"/>
</linearGradient>
<linearGradient id="paint36_linear" x1="169.676" y1="-2.76448" x2="49.6509" y2="33.8392" gradientUnits="userSpaceOnUse">
<stop offset="0.406122" stop-color="#B10000"/>
<stop offset="1" stop-color="#F16228"/>
</linearGradient>
<linearGradient id="paint37_linear" x1="169.676" y1="-2.76448" x2="49.6509" y2="33.8392" gradientUnits="userSpaceOnUse">
<stop offset="0.406122" stop-color="#B10000"/>
<stop offset="1" stop-color="#F16228"/>
</linearGradient>
<clipPath id="clip0">
<rect width="58.7451" height="56" fill="white" transform="translate(4.60571 2.07153)"/>
</clipPath>
</defs>
</svg>
