<svg width="42" height="42" viewBox="0 0 42 42" fill="none" xmlns="http://www.w3.org/2000/svg">
<path d="M13.8345 5.94643C15.0132 5.94643 16.1655 6.29597 17.1456 6.95084C18.1257 7.60571 18.8896 8.53651 19.3406 9.62552C19.7917 10.7145 19.9097 11.9129 19.6798 13.069C19.4498 14.225 18.8822 15.287 18.0487 16.1205C17.2152 16.954 16.1533 17.5216 14.9972 17.7516C13.8411 17.9815 12.6428 17.8635 11.5538 17.4124C10.4647 16.9613 9.53394 16.1974 8.87907 15.2173C8.22419 14.2373 7.87466 13.085 7.87466 11.9062C7.87466 10.3256 8.50256 8.8097 9.62025 7.69202C10.7379 6.57434 12.2538 5.94643 13.8345 5.94643ZM13.8345 3.5625C12.1842 3.5625 10.5711 4.05185 9.19894 4.96868C7.82682 5.8855 6.75738 7.18861 6.12586 8.71324C5.49434 10.2379 5.3291 11.9155 5.65105 13.534C5.97299 15.1526 6.76766 16.6393 7.93456 17.8062C9.10145 18.9731 10.5882 19.7677 12.2067 20.0897C13.8252 20.4116 15.5029 20.2464 17.0275 19.6149C18.5521 18.9834 19.8552 17.9139 20.7721 16.5418C21.6889 15.1697 22.1782 13.5565 22.1782 11.9062C22.1782 9.69335 21.2992 7.57108 19.7344 6.00633C18.1696 4.44157 16.0474 3.5625 13.8345 3.5625Z" fill="url(#paint0_linear)"/>
<path d="M25.7543 36.9375H23.3704V30.9777C23.3704 29.397 22.7425 27.8811 21.6248 26.7634C20.5071 25.6457 18.9912 25.0178 17.4106 25.0178H10.2588C8.67815 25.0178 7.16224 25.6457 6.04456 26.7634C4.92688 27.8811 4.29897 29.397 4.29897 30.9777V36.9375H1.91504V30.9777C1.91504 28.7648 2.79411 26.6425 4.35887 25.0777C5.92362 23.513 8.04589 22.6339 10.2588 22.6339H17.4106C19.6235 22.6339 21.7457 23.513 23.3105 25.0777C24.8753 26.6425 25.7543 28.7648 25.7543 30.9777V36.9375Z" fill="url(#paint1_linear)"/>
<path d="M30.897 22.1737L27.4976 18.7744L25.647 20.625L30.897 25.875L40.0845 16.6875L38.2338 14.8369L30.897 22.1737Z" fill="url(#paint2_linear)"/>
<defs>
<linearGradient id="paint0_linear" x1="22.1782" y1="3.5625" x2="5.49072" y2="20.25" gradientUnits="userSpaceOnUse">
<stop stop-color="#B10000"/>
<stop offset="1" stop-color="#F16228"/>
</linearGradient>
<linearGradient id="paint1_linear" x1="25.7543" y1="22.6339" x2="1.91503" y2="46.1639" gradientUnits="userSpaceOnUse">
<stop stop-color="#B10000"/>
<stop offset="1" stop-color="#F29221"/>
</linearGradient>
<linearGradient id="paint2_linear" x1="46.3376" y1="10.164" x2="25.647" y2="25.875" gradientUnits="userSpaceOnUse">
<stop stop-color="#B10000"/>
<stop offset="1" stop-color="#F16228"/>
</linearGradient>
</defs>
</svg>
