<svg width="25" height="25" viewBox="0 0 25 25" fill="none" xmlns="http://www.w3.org/2000/svg">
<g>
<path d="M17.4667 8.33676C18.0632 8.33676 18.5467 7.85322 18.5467 7.25676C18.5467 6.66029 18.0632 6.17676 17.4667 6.17676C16.8703 6.17676 16.3867 6.66029 16.3867 7.25676C16.3867 7.85322 16.8703 8.33676 17.4667 8.33676Z" fill="white"/>
<path d="M12.662 7.43945C11.748 7.43945 10.8545 7.7105 10.0945 8.21832C9.33446 8.72613 8.74211 9.44791 8.39232 10.2924C8.04253 11.1368 7.95101 12.0661 8.12933 12.9626C8.30765 13.859 8.74781 14.6825 9.39414 15.3288C10.0405 15.9752 10.8639 16.4153 11.7604 16.5936C12.6569 16.772 13.5861 16.6805 14.4306 16.3307C15.2751 15.9809 15.9968 15.3885 16.5047 14.6285C17.0125 13.8685 17.2835 12.975 17.2835 12.061C17.2835 10.8353 16.7966 9.65976 15.9299 8.79306C15.0632 7.92636 13.8877 7.43945 12.662 7.43945ZM12.662 15.061C12.0687 15.061 11.4887 14.885 10.9953 14.5554C10.502 14.2257 10.1175 13.7572 9.89039 13.209C9.66333 12.6608 9.60392 12.0576 9.71967 11.4757C9.83543 10.8937 10.1212 10.3592 10.5407 9.93963C10.9603 9.52007 11.4948 9.23435 12.0768 9.1186C12.6587 9.00284 13.2619 9.06225 13.8101 9.28931C14.3583 9.51638 14.8268 9.90089 15.1564 10.3942C15.4861 10.8876 15.662 11.4676 15.662 12.061C15.662 12.8566 15.346 13.6197 14.7833 14.1823C14.2207 14.7449 13.4577 15.061 12.662 15.061Z" fill="white"/>
<path d="M12.6621 4.68254C15.0651 4.68254 15.3501 4.69154 16.2989 4.73504C16.8695 4.74181 17.4347 4.84658 17.9699 5.04479C18.3581 5.19455 18.7107 5.42394 19.0049 5.71819C19.2992 6.01244 19.5286 6.36504 19.6784 6.75329C19.8766 7.28843 19.9813 7.85365 19.9881 8.42428C20.0316 9.37303 20.0406 9.65803 20.0406 12.0618C20.0406 14.4655 20.0316 14.749 19.9881 15.6978C19.9813 16.2684 19.8766 16.8336 19.6784 17.3688C19.5286 17.757 19.2992 18.1096 19.0049 18.4039C18.7107 18.6981 18.3581 18.9275 17.9699 19.0773C17.4347 19.2755 16.8695 19.3803 16.2989 19.387C15.3501 19.4305 15.0651 19.4395 12.6621 19.4395C10.2591 19.4395 9.97411 19.4305 9.02536 19.387C8.45473 19.3803 7.88951 19.2755 7.35436 19.0773C6.96611 18.9275 6.61352 18.6981 6.31927 18.4039C6.02502 18.1096 5.79563 17.757 5.64586 17.3688C5.44766 16.8336 5.34288 16.2684 5.33611 15.6978C5.29261 14.749 5.28361 14.464 5.28361 12.061C5.28361 9.65804 5.29261 9.37303 5.33611 8.42428C5.34288 7.85365 5.44766 7.28843 5.64586 6.75329C5.79563 6.36504 6.02502 6.01244 6.31927 5.71819C6.61352 5.42394 6.96611 5.19455 7.35436 5.04479C7.88951 4.84658 8.45473 4.74181 9.02536 4.73504C9.97411 4.69154 10.2591 4.68254 12.6621 4.68254ZM12.6621 3.06104C10.2179 3.06104 9.91111 3.07154 8.95111 3.11504C8.20469 3.13011 7.46623 3.27161 6.76711 3.53354C6.16915 3.76476 5.6261 4.11837 5.17277 4.5717C4.71944 5.02503 4.36583 5.56808 4.13461 6.16604C3.8726 6.86539 3.7311 7.60411 3.71611 8.35079C3.67261 9.31079 3.66211 9.61604 3.66211 12.061C3.66211 14.506 3.67261 14.812 3.71611 15.772C3.73118 16.5185 3.87269 17.2569 4.13461 17.956C4.36583 18.554 4.71944 19.097 5.17277 19.5504C5.6261 20.0037 6.16915 20.3573 6.76711 20.5885C7.46646 20.8505 8.20519 20.992 8.95186 21.007C9.91186 21.0505 10.2179 21.061 12.6621 21.061C15.1064 21.061 15.4131 21.0505 16.3731 21.007C17.1198 20.992 17.8585 20.8505 18.5579 20.5885C19.1558 20.3573 19.6989 20.0037 20.1522 19.5504C20.6055 19.097 20.9591 18.554 21.1904 17.956C21.4521 17.2566 21.5934 16.5179 21.6081 15.7713C21.6516 14.8113 21.6621 14.506 21.6621 12.061C21.6621 9.61604 21.6516 9.31004 21.6081 8.35004C21.593 7.60362 21.4515 6.86515 21.1896 6.16604C20.9584 5.56808 20.6048 5.02503 20.1514 4.5717C19.6981 4.11837 19.1551 3.76476 18.5571 3.53354C17.8577 3.27179 17.119 3.13053 16.3724 3.11579C15.4124 3.07079 15.1071 3.06104 12.6621 3.06104Z" fill="white"/></g>
</svg>
