<svg width="25" height="25" viewBox="0 0 25 25" fill="none" xmlns="http://www.w3.org/2000/svg">
<path d="M23.1621 11.9955C23.1621 11.9439 23.1621 11.8854 23.1598 11.8174C23.1574 11.6275 23.1527 11.4143 23.148 11.1869C23.1293 10.533 23.0965 9.88145 23.0449 9.26738C22.9746 8.42129 22.8715 7.71582 22.7309 7.18613C22.5825 6.63336 22.2916 6.12922 21.8873 5.72409C21.483 5.31897 20.9794 5.02706 20.427 4.87754C19.7637 4.69941 18.4652 4.58926 16.6371 4.52129C15.7676 4.48848 14.8371 4.46738 13.9066 4.45566C13.5809 4.45098 13.2785 4.44863 13.0066 4.44629H12.3176C12.0457 4.44863 11.7434 4.45098 11.4176 4.45566C10.4871 4.46738 9.55664 4.48848 8.68711 4.52129C6.85898 4.5916 5.5582 4.70176 4.89727 4.87754C4.34461 5.02669 3.84087 5.31848 3.43651 5.72366C3.03215 6.12884 2.74139 6.63318 2.59336 7.18613C2.45039 7.71582 2.34961 8.42129 2.2793 9.26738C2.22773 9.88145 2.19492 10.533 2.17617 11.1869C2.16914 11.4143 2.1668 11.6275 2.16445 11.8174C2.16445 11.8854 2.16211 11.9439 2.16211 11.9955V12.1268C2.16211 12.1783 2.16211 12.2369 2.16445 12.3049C2.1668 12.4947 2.17148 12.708 2.17617 12.9354C2.19492 13.5893 2.22773 14.2408 2.2793 14.8549C2.34961 15.701 2.45273 16.4064 2.59336 16.9361C2.89336 18.0588 3.77461 18.9447 4.89727 19.2447C5.5582 19.4229 6.85898 19.533 8.68711 19.601C9.55664 19.6338 10.4871 19.6549 11.4176 19.6666C11.7434 19.6713 12.0457 19.6736 12.3176 19.676H13.0066C13.2785 19.6736 13.5809 19.6713 13.9066 19.6666C14.8371 19.6549 15.7676 19.6338 16.6371 19.601C18.4652 19.5307 19.766 19.4205 20.427 19.2447C21.5496 18.9447 22.4309 18.0611 22.7309 16.9361C22.8738 16.4064 22.9746 15.701 23.0449 14.8549C23.0965 14.2408 23.1293 13.5893 23.148 12.9354C23.1551 12.708 23.1574 12.4947 23.1598 12.3049C23.1598 12.2369 23.1621 12.1783 23.1621 12.1268V11.9955ZM21.4746 12.1174C21.4746 12.1666 21.4746 12.2205 21.4723 12.2838C21.4699 12.4666 21.4652 12.6682 21.4605 12.8861C21.4441 13.5096 21.4113 14.133 21.3621 14.7119C21.2988 15.4666 21.2098 16.0854 21.0996 16.5002C20.9543 17.0416 20.5277 17.4705 19.9887 17.6135C19.4965 17.7447 18.2566 17.8502 16.5715 17.9135C15.7184 17.9463 14.7996 17.9674 13.8832 17.9791C13.5621 17.9838 13.2645 17.9861 12.9973 17.9861H12.327L11.441 17.9791C10.5246 17.9674 9.6082 17.9463 8.75273 17.9135C7.06758 17.8479 5.82539 17.7447 5.33555 17.6135C4.79648 17.4682 4.36992 17.0416 4.22461 16.5002C4.11445 16.0854 4.02539 15.4666 3.96211 14.7119C3.91289 14.133 3.88242 13.5096 3.86367 12.8861C3.85664 12.6682 3.8543 12.4643 3.85195 12.2838C3.85195 12.2205 3.84961 12.1643 3.84961 12.1174V12.0049C3.84961 11.9557 3.84961 11.9018 3.85195 11.8385C3.8543 11.6557 3.85898 11.4541 3.86367 11.2361C3.88008 10.6127 3.91289 9.98926 3.96211 9.41035C4.02539 8.65566 4.11445 8.03691 4.22461 7.62207C4.36992 7.08066 4.79648 6.65176 5.33555 6.50879C5.82773 6.37754 7.06758 6.27207 8.75273 6.20879C9.60586 6.17598 10.5246 6.15488 11.441 6.14316C11.7621 6.13848 12.0598 6.13613 12.327 6.13613H12.9973L13.8832 6.14316C14.7996 6.15488 15.716 6.17598 16.5715 6.20879C18.2566 6.27441 19.4988 6.37754 19.9887 6.50879C20.5277 6.6541 20.9543 7.08066 21.0996 7.62207C21.2098 8.03691 21.2988 8.65566 21.3621 9.41035C21.4113 9.98926 21.4418 10.6127 21.4605 11.2361C21.4676 11.4541 21.4699 11.658 21.4723 11.8385C21.4723 11.9018 21.4746 11.958 21.4746 12.0049V12.1174ZM10.5762 15.2018L16.0137 12.0377L10.5762 8.92051V15.2018Z" fill="white"/>
</svg>
