<svg width="24" height="24" viewBox="0 0 24 24" fill="none" xmlns="http://www.w3.org/2000/svg">
<path d="M22.5 11.9344C22.5 11.8828 22.5 11.8243 22.4977 11.7563C22.4953 11.5664 22.4906 11.3532 22.4859 11.1258C22.4672 10.4719 22.4344 9.82035 22.3828 9.20629C22.3125 8.36019 22.2094 7.65472 22.0687 7.12504C21.9204 6.57226 21.6295 6.06812 21.2252 5.663C20.8209 5.25788 20.3173 4.96596 19.7648 4.81644C19.1016 4.63832 17.8031 4.52816 15.975 4.46019C15.1055 4.42738 14.175 4.40629 13.2445 4.39457C12.9187 4.38988 12.6164 4.38754 12.3445 4.38519H11.6555C11.3836 4.38754 11.0813 4.38988 10.7555 4.39457C9.825 4.40629 8.89453 4.42738 8.025 4.46019C6.19687 4.53051 4.89609 4.64066 4.23516 4.81644C3.6825 4.9656 3.17876 5.25739 2.7744 5.66256C2.37004 6.06774 2.07928 6.57208 1.93125 7.12504C1.78828 7.65472 1.6875 8.36019 1.61719 9.20629C1.56562 9.82035 1.53281 10.4719 1.51406 11.1258C1.50703 11.3532 1.50469 11.5664 1.50234 11.7563C1.50234 11.8243 1.5 11.8828 1.5 11.9344V12.0657C1.5 12.1172 1.5 12.1758 1.50234 12.2438C1.50469 12.4336 1.50937 12.6469 1.51406 12.8743C1.53281 13.5282 1.56562 14.1797 1.61719 14.7938C1.6875 15.6399 1.79063 16.3454 1.93125 16.875C2.23125 17.9977 3.1125 18.8836 4.23516 19.1836C4.89609 19.3618 6.19687 19.4719 8.025 19.5399C8.89453 19.5727 9.825 19.5938 10.7555 19.6055C11.0813 19.6102 11.3836 19.6125 11.6555 19.6149H12.3445C12.6164 19.6125 12.9187 19.6102 13.2445 19.6055C14.175 19.5938 15.1055 19.5727 15.975 19.5399C17.8031 19.4696 19.1039 19.3594 19.7648 19.1836C20.8875 18.8836 21.7687 18 22.0687 16.875C22.2117 16.3454 22.3125 15.6399 22.3828 14.7938C22.4344 14.1797 22.4672 13.5282 22.4859 12.8743C22.493 12.6469 22.4953 12.4336 22.4977 12.2438C22.4977 12.1758 22.5 12.1172 22.5 12.0657V11.9344ZM20.8125 12.0563C20.8125 12.1055 20.8125 12.1594 20.8102 12.2227C20.8078 12.4055 20.8031 12.6071 20.7984 12.825C20.782 13.4485 20.7492 14.0719 20.7 14.6508C20.6367 15.4055 20.5477 16.0243 20.4375 16.4391C20.2922 16.9805 19.8656 17.4094 19.3266 17.5524C18.8344 17.6836 17.5945 17.7891 15.9094 17.8524C15.0562 17.8852 14.1375 17.9063 13.2211 17.918C12.9 17.9227 12.6023 17.925 12.3352 17.925H11.6648L10.7789 17.918C9.8625 17.9063 8.94609 17.8852 8.09063 17.8524C6.40547 17.7868 5.16328 17.6836 4.67344 17.5524C4.13437 17.4071 3.70781 16.9805 3.5625 16.4391C3.45234 16.0243 3.36328 15.4055 3.3 14.6508C3.25078 14.0719 3.22031 13.4485 3.20156 12.825C3.19453 12.6071 3.19219 12.4032 3.18984 12.2227C3.18984 12.1594 3.1875 12.1032 3.1875 12.0563V11.9438C3.1875 11.8946 3.1875 11.8407 3.18984 11.7774C3.19219 11.5946 3.19688 11.393 3.20156 11.175C3.21797 10.5516 3.25078 9.92816 3.3 9.34926C3.36328 8.59457 3.45234 7.97582 3.5625 7.56097C3.70781 7.01957 4.13437 6.59066 4.67344 6.44769C5.16562 6.31644 6.40547 6.21097 8.09063 6.14769C8.94375 6.11488 9.8625 6.09379 10.7789 6.08207C11.1 6.07738 11.3977 6.07504 11.6648 6.07504H12.3352L13.2211 6.08207C14.1375 6.09379 15.0539 6.11488 15.9094 6.14769C17.5945 6.21332 18.8367 6.31644 19.3266 6.44769C19.8656 6.59301 20.2922 7.01957 20.4375 7.56097C20.5477 7.97582 20.6367 8.59457 20.7 9.34926C20.7492 9.92816 20.7797 10.5516 20.7984 11.175C20.8055 11.393 20.8078 11.5969 20.8102 11.7774C20.8102 11.8407 20.8125 11.8969 20.8125 11.9438V12.0563ZM9.91406 15.1407L15.3516 11.9766L9.91406 8.85941V15.1407Z" fill="#B10000"/>
</svg>
